<?xml version="1.0" encoding="utf-8"?>
<!-- Generator: Adobe Illustrator 22.0.1, SVG Export Plug-In . SVG Version: 6.00 Build 0)  -->
<svg version="1.1" id="Layer_1" xmlns="http://www.w3.org/2000/svg" xmlns:xlink="http://www.w3.org/1999/xlink" x="0px" y="0px"
	 viewBox="0 0 400 400" style="enable-background:new 0 0 400 400;" xml:space="preserve">
<style type="text/css">
	.st0{opacity:0.9;}
	.st1{fill:#F4F4F4;}
</style>
<g class="st0">
	<g>
		<g>
			<g>
				<g>
					<path class="st1" d="M125.3,383.1c0.5,0.1,1.4-0.2,1.1-0.7l-1.7-0.1L125.3,383.1z"/>
					<path class="st1" d="M127.8,378.9c-0.9-0.5-2.4-1-3.8-0.3c1.7,0.4,1,0.6,3,1c0.3,0.5-0.4,1-1,1c0.4,0.1-0.2,0.9,0.8,1
						c1.1-0.9,1.1-1.8-0.1-2.6C127,378.8,127.5,378.9,127.8,378.9z"/>
					<path class="st1" d="M124.8,325.8l-0.2,0.4C124.8,326,124.8,325.9,124.8,325.8z"/>
					<path class="st1" d="M125.1,292.9c0,0.3,0.2,0.4,0.4,0.4C125.4,293,125.3,292.8,125.1,292.9z"/>
					<path class="st1" d="M127,287.3c-0.1,0.1-0.1,0.2-0.1,0.3C127,287.5,127.1,287.4,127,287.3z"/>
					<path class="st1" d="M124.8,325.8l0.5-0.9C124.8,324.8,124.9,325.3,124.8,325.8z"/>
					<path class="st1" d="M122.6,372.3c0.1,0.2,0.3,0.3,0.5,0.4c-0.1-0.1-0.2-0.3-0.2-0.4C122.8,372.3,122.7,372.3,122.6,372.3z"/>
					<path class="st1" d="M127,340.1l0,0.3c0.2,0.1,0.4,0.1,0.7,0.2L127,340.1z"/>
					<path class="st1" d="M128.3,351.2c0-0.3-1.4-0.2-2-0.2c0.6,0.1,0.9,0.2,1,0.5C127.5,351.4,127.9,351.3,128.3,351.2z"/>
					<path class="st1" d="M127.9,368.9l0.2,0.3C128,369.2,128,369,127.9,368.9z"/>
					<path class="st1" d="M126.8,332.2c0.2,0,0.4-0.1,0.5-0.1C127.1,332.1,127,332.1,126.8,332.2z"/>
					<path class="st1" d="M119.8,19.6c0.1,0,0.2,0,0.2,0C119.9,19.6,119.8,19.5,119.8,19.6z"/>
					<path class="st1" d="M127.5,7l0.1,0.2c0.3,0,0.5,0.1,0.8,0.1L127.5,7z"/>
					<path class="st1" d="M129,277C128.9,277.1,128.9,277.1,129,277C129.1,277.4,129.1,277.2,129,277z"/>
					<path class="st1" d="M131.6,182.4c-1.3,1-1.6-1.8-3-0.2C129.1,182,130.7,183.7,131.6,182.4z"/>
					<path class="st1" d="M122.8,371.9c0-0.1-0.1-0.3-0.1-0.5C122.7,371.7,122.7,371.8,122.8,371.9z"/>
					<path class="st1" d="M128.6,182.1L128.6,182.1l-0.1,0.2C128.5,182.2,128.5,182.2,128.6,182.1z"/>
					<path class="st1" d="M128.9,253.4c-0.2,0-0.4,0.1-0.6,0.2C128.4,253.6,128.6,253.5,128.9,253.4z"/>
					<path class="st1" d="M126.3,270.9l0.2-0.4C126.3,270.7,126.3,270.8,126.3,270.9z"/>
					<path class="st1" d="M127.3,244.1c0.1-0.2,0.3-0.3,0.1-0.6c-0.1,0-0.1,0.1-0.2,0.1C127.4,243.7,127.5,243.8,127.3,244.1z"/>
					<path class="st1" d="M127.7,234.5c-0.1,0-0.2,0.1-0.3,0.2c0,0.1,0,0.2,0.1,0.3L127.7,234.5z"/>
					<path class="st1" d="M119.6,48.9c0.4-0.2,0.8-0.3,1.3-0.4C119.9,48.7,119.5,47.2,119.6,48.9z"/>
					<path class="st1" d="M123.4,372.1c-0.4,0-0.5-0.1-0.6-0.2c0,0.1,0.1,0.2,0.1,0.3C123.1,372.2,123.3,372.2,123.4,372.1z"/>
					<path class="st1" d="M116.2,243.2l0.3-1.5C116.3,242.1,116.2,242.7,116.2,243.2z"/>
					<path class="st1" d="M120.2,117.8l-0.2-0.3C120,117.6,120.1,117.7,120.2,117.8z"/>
					<path class="st1" d="M116.5,237.2c0.5-0.2,0.8-0.5,1-0.8c-0.1-0.1-0.2-0.1-0.4-0.2L116.5,237.2z"/>
					<path class="st1" d="M120.9,48.5C120.9,48.5,120.9,48.5,120.9,48.5C120.9,48.5,120.9,48.5,120.9,48.5z"/>
					<path class="st1" d="M117.7,38.4c-0.1,1.5,1.8,0.7,2.8,1.1c0.5,1.8-1.4,0.8-2.3,1.3c0.5,1.1,2.1,2,2.1,2.8
						c-0.3,0.1-0.4,0.2-0.8,0c1.4,1.2,0,3.4,1.8,4.8c-0.2,0.1-0.3,0.1-0.5,0.2c0.9-0.2,1.9-0.2,2.5-0.2c0,0.7,1.2,1.2-0.1,1.5
						c0-0.4-0.4-0.4-0.8-0.6l0.5,0.7c-1.7,0.6-0.6-0.9-1.9-1c0.6,1.3,2,2.9,1.5,3.9c-1.7,0.2-0.5-2.4-2.1-1l0.7-1.6
						c-2.7,1.2,0.2-1-2.7,0.1c-0.5,2.1,0.8,2.3,0.3,4.4c0.9,0.5,1.4-0.1,2.3,0.3c1.7,3-4.3,2.3-2,4.5c1.1,0.6,3.3,0.8,2.1,2.3
						l-1.9-0.5c-0.2,2,2.8,1.2,1.5,3.3c-0.8-0.4-0.6-1.6-0.9-1.3c-1.5,1.4,1.1,1,1.1,2l-1.7,0.2c0.3,2.1,1.5,4.5,1.8,6.9
						c-0.5-0.1-1-0.5-1.6,0c0.9,3-0.2,6.4-1.2,9.3l1.5,1.1c0,0.3-0.7,0.5-0.9,0.2c-0.5,1.1,0.9,0,1.5,0.6c0.1,0.6-0.8,0.9-1.3,0.5
						c1.3,2,2.7,5.6,1.2,7.7l-0.4-0.4c-0.6,1.6,3,1.8,1.7,3.3l-0.3-0.3c-0.6,3.5,0.8,7.4-1.4,10.1c2.1,0.5-0.9,3.5,2.1,3.7
						c-1.4,2-2,1.5-2.9,4.3c-0.1,0.8,1.9,1.1,2.2,2l-1.5,0l1.6,1.2l-1.8,0.7l0.4,0.9c0.1-0.4,0.7-0.8,1.1-0.7c0.7,1.4-1,3.4-1.8,3.4
						l1.3,3.2c-0.6-0.1-0.8-0.6-1.2-1c1.6,1.7-1.6,0.3-0.2,1.9c0.3-0.2,0.9,0.1,1.2,0.1c-0.9,0.8-0.9,2.6-0.5,3.9l-1.1-0.2
						c-0.2,2.4,0.6,5.1,0.6,7.7c0.5-1,2.3-0.8,2.5,0l-1.6,0.3c1,0.5,0.6-0.8,1.8,0.2c-0.2,1-1.8,0.7-2.4,0.1l0.6,1.2
						c-0.5,0.1-0.7-0.2-1.4-0.3c1,0.5-1.6,2.1,0.1,2.8l-0.5,0.1c0,2.7,0.6,3.9,0.6,6.1c1.4,0,1.1,0.9,2.2,1.5
						c-0.4,1.6-1.5,3.4-1.4,5.3c0.7,1.4,1.2,0.4,2,1c-1.3,0.1-1.2,2-2.1,1c0.2,2.3,0.2,3,1.3,5.9c0.5-0.3,0.8-0.7,1.2-0.5
						c0.2,0.5-0.6,1.2-1.2,1.1l-0.1-0.1c1.9,3.3-3.8,7.6-1.2,10.2l-0.1-0.1l1.3,2.8c-0.3,1.2-0.9-0.8-1.8,0.1c2.1,3-0.4,4.6,0.9,7.1
						c-3.8,1.8,0.1,6.7-2.4,9.1l0.9-0.1c0.8,0.7-0.5,0.8-0.8,1.2c0.7,0,0.8-0.7,1.3-0.3c0.9,5.6-1.7,11.4-2.8,17
						c-0.3,2.1,4.6,1.4,2.3,3.9l-1.6-0.8c1.8,4.3-0.5,8.6,1,12.8c-0.4-0.3-0.9-0.3-0.8-0.7c-1.2,0.8-0.2,3.2,0.8,3.3
						c-0.1,0.6-0.9,0.1-1.4,0.5c-0.7,0.8,1.4,2.3,0.2,2.7c-0.2,0.1-0.4-0.3-0.5-0.4c0.6,0.6-0.3,2.6,1.1,2.2c-0.7,1.5,0.5,3-0.4,4.2
						c1.5,0.9-0.9,2.6,1.3,3c-2.3-0.2-1.9,2.6-0.9,3.7c-0.7-0.4-0.7,0.8-1.7,0.4c0,1.1,0.4,2.2,1.5,2c-2.8,1.9,2,4.2-1.5,5.2
						c1.1,3.4,1.8,6.5,2.2,9.5c-2.2-0.2-0.1-3.3-2.5-3.3c0.8,2.9,2.7,4.6,2.1,7.4c-0.3,0.7-1-0.4-1.3-0.7c0.8,2.9-0.4,5.5,0.8,8
						c-0.2,0-0.4-0.3-0.6-0.6c0.1,0.5-0.4,1.1,0.7,1.1l-0.3-0.5c1.5-0.8,3.1,2.1,3.8,2.2c-2.9-0.9-0.8,2.5-4.5,1
						c0.2,0.3,0.7,0.8,1.3,0.7c-0.2,0.5-0.6,0.6-1.4,0.1c0.5,1.8,1.6,1.2,1.6,2.8c-0.5,0-0.7-0.3-1.3-0.5c1,0.8,1.9,1.7,1.5,3
						c-0.3-0.1-0.7,0.1-0.7-0.3c0.1,2.4,2.5,4,1.5,6.6c-2.1-0.8-0.7,0.9-2.6,1l0.5,1.4l0.9-0.5c-0.1,1.2,1.3,2.3,0.7,3.3l-0.8-0.9
						l0.4,2.3l0.7-1.3c1,1.2,2.4-0.1,1.8,1.5c-0.2-0.3,0,1.2-1.1,1.8l0,0c0.6,0.6,1.2,1.2,0.8,2.1c-0.6,0.2-2.1-0.2-2.5,0
						c1.6,0.6,0.4,2.8,2.1,3.6c-0.4-0.2-1.4-0.3-1.6-0.2l1.3,0.5c-0.4,0.6-0.6,0.6-1.4,0.6c-0.2,1.7,2.4-0.6,1.3,1.5
						c-0.1-0.2-0.3-0.1-0.5-0.4c-0.5,2,0.9,3.9,0.3,5.7c-1.9,0.6-0.5-1.6-2.1-1c0.4,2.7,2.4,5.5,2,8.1l0.2-0.5c2.6,0.3-1.3,2,0,3.2
						c-0.2-0.3-1.5-0.4-1.2-0.3c-0.4,1.8,0.8,3.6,1.7,6.2l-0.7-0.3c-0.6,1.1-0.2,2.8-0.5,3.9c0.7,0.3,0.6,0.9,1.6,0.5
						c-3.7,3.7,2.5,6.5-0.5,9.8c0-0.4-0.7-0.8-0.6-0.5l0.8,2.6c1.1-0.3,0.7-0.4,1.5-1c0.7,0.3,1.3,1,1.3,1.6
						c-0.8-1.1-1.8,0.1-2.5,0.7c0.3-0.1,0.7,0,1.1,0c-1.9,1.5,2.3,0,1.1,2l-0.6,0c0.4,0.7,1.2,1.2,1.1,2c-1.3,0.4-0.7-0.7-1.8-0.6
						c0.2,1.1,2.7,1.9,1.5,2.9c-0.4-0.4-0.5-1.1-0.9-1.5c-1.5,1.2-1.1,1.3-1.2,2.1l0-0.1l-0.5,1.9l0.4-0.5c3.6,1,0.9,2.6,3.3,4.2
						c-2.3-1.5-1.3-0.2-2.8-0.1c-0.4,0.5-0.8,1.2-1.2,1.1c1.3,0.7-0.8,1.5,1.1,2.5c-0.5,0.1,0.1,0.9-1.2,0.9
						c0.5,1.1,0.8-0.4,1.4-0.3c1.9,1.5-1.5,4.2,1.1,6.4c1.2,2,2.9,2.1,3.9,3.9c-0.7,0.8-1.8-0.3-1.8-0.3c-0.6,1.2-0.3,1.9,0.4,2.8
						c-0.5-0.1-0.8,0.1-1.3,0.5c0.3,0.8,1.8,0.3,1.3,1.4c-0.6-0.1-1.5-0.2-2.1-0.5c0.6,0.9,1.6,1.7,2.2,2.6c-0.8,0.4-1.4-0.4-2-0.6
						c0.6,1,1.2,2.7,2.6,2.8l0.4-0.8c0.1,0.4-1.1,0.4-1.4,0.1c-1.2-0.8,0.2-1.4,0.7-1.6l0.4,0.6c2.7-1.2-0.9-2.7-1-4.1l2.2,0.3
						l-1.9-1.2c0.5-0.4,1.6-0.8,2-0.1c0.9-1.1-0.9-0.8,0.1-1.8c0.2-0.1,0.3-0.1,0.4,0l-0.7-0.9c0.5,0.1,1.4-0.4,1.2,0.3
						c1-1.9-1.9-2.6-0.4-3.5l0.1,0.1c-1-2.3-1.5,0-3.6-1.6l3.6-1.7l-1.5,0c0-0.3,0.1-0.8,0.7-0.7c-1.2-0.8-0.6,0.2-1.7-0.2
						c1.2-1.4-1.1-3.2,1.3-3.8c-1.2-0.3-0.7,1.2-1.7,0.1c2.5-0.7-0.6-1.4,0.5-2.7c1.4,0.2,0.8,1.3,1.9,0.1c-2.3-0.4,0.3-2.2-0.2-3.1
						c-1.8,0.1-0.9-1.9-1.7-3.4c0.6,0,0.7-3,1.2-4.5l0.3,0c-1.9-0.1-1.6-1.7-2.1-2.7c1.1,0,1.5,0.1,2.1,0.7l-0.1-1
						c-0.6-0.2-0.9-0.5-1.2-1.1l1.4,0.2c-0.2-1.3-1.8-2.6-1-4.4c-1.3,0-3.5,1.6-4.4-0.2c0.7-0.1,1.9-0.3,2.2,0.2
						c-0.1-0.2-0.6-0.5-0.3-0.9l1.2,0.7c0.5-0.8-1-0.4-0.9-1c1,0,0.7-0.5,1.5-0.5c0.1,0.2-0.4,0.6,0,0.8c0.1-0.7,0.7-1.6,1.4-2
						c-0.6,0.1-1.3,0.1-1.5-0.4c-0.2-1.4,1.2-0.5,1.6-1.3c-0.7-0.3,0-1.2-1.5-1.1c0-0.4,0.7-0.5,1.1-0.7c-0.7-0.7-0.3-3.3-1.9-2.4
						l-0.1,0.2c0,0,0-0.1-0.1-0.1c0,0,0,0,0,0l0,0c-1.6-2.2,0.6-4.8-0.1-7.1l0.5,0c-0.6-1.3-0.5-3-1.5-4c0-0.4,0.9-1,1.5-0.8
						c-0.4-1-0.9-1.1-0.2-2.7c0.9,1,0.8-0.4,0.7,1.1c0.4-1.4,1.2-1.7-0.2-3.1c1.3,0.5,1.6-1,1.2-1.7l-0.9,1c-0.2-0.7-0.1-1.4,0-2
						l1.7,0.3c2-2.8-3.5-5-0.1-7.1c-1.2-0.7-0.8,1.5-2.2,0.9c0.2-1.3,2.6-2.6,2.6-3c0.9-1.7-2.4-1.6-1.8-3.5
						c-0.6,0.2-2.2,0.5-2.7-0.9c0.2-1.3,2.5-1.6,3-0.8c0.1,0.3-0.1,0.5-0.3,0.4c0.2,0.4,0.5,1,1.1,0.5l-0.6-0.2
						c0.6-0.6,0.5-2.4,1.5-2c-0.6-1-1-0.4-1.3,0.3c0.9-1.6,0.1-2.6,0.6-4.2c-0.3,0.3-1,0.5-1,0.2c0.8-2.5-1.1-1.1-1.3-2.8
						c0.9-0.9,2.2,0.4,1.4-1.3c0.6-1,1.6-0.2,2.1,0.2c-1.1-1.6,0.8-2.9,1-3.7l0.5,0.8c-0.3-0.5-0.3-0.9-0.3-1.3l-1.2,0.4
						c0.2-0.5,0.2-0.9,0.7-0.9c-0.8-0.5-2,0.3-3-0.7c0.6-0.6-0.6-2,1-2.1c-0.6,2,1.6-0.2,1.8,1.5c-0.2-0.3-0.2-0.7,0.1-1.2
						c0.2-0.1,0.3,0.1,0.4,0.2c1.5-1.9-1.8-0.9-1.7-2.9c0.9,0.3,1.7-0.4,1.5-0.7c0,0.8-1.5,0.3-2.2-0.4c0.7-1.3-0.5-1.4-0.4-2.1
						l-0.3,0.8c-0.9-0.3-0.7-0.9-1-1.8c0.7-0.1,0.5,0.8,0.8,0.5c-1.5-1,1.7-2.2,0.7-3.6c0.6-0.6,1.7,0,2.1-0.6
						c-1.1-1.6,1.3-1.6,0.4-3.3c-1.2,0.4-0.9,0.5-2-0.7l0.7,2.7l-1.7-1.8c0,0.8,0.7,1.7,0.5,2.2c-1-0.8-0.7-0.8-1.7-0.4
						c1.8-1-1-2.2,0.3-3.4l2.9,0.1c1.4-1.9-1.4-3.4-0.6-5.9l-0.5,0.8c-1.2-0.4-0.1-1.5-0.6-2.4c1,0.1,1.4-0.4,2-0.7
						c-0.7,0,0.1-1.8-1.8-2.1l1.3-1.1c0.6-2-2.7-2.4-2.3-4.3c1,0.6,1.8-0.2,2.5,1.1c0-0.6,0.2-1.2-0.4-1.3c0.6-0.3-1.3-1.8-0.3-2.4
						c-0.4-0.3-1.5-0.4-1.3-1.1c0.2-0.1,0.5,0,0.5,0c-0.5,0-0.6-1.2-1.7-0.6c3.2-1.8,0-5.5,2.7-7.2c-0.3-1.4-0.5-3.1-0.5-4.4
						c0.3,0.1,0.5,0,0.4,0.3c1-1.7-2.8-1.2-1.7-3.2c1.6-0.9,0.8,1.1,1.4,0.5c3.3-0.1-0.3-2.4,1.6-3.7l0.2,0.3c1.1-1-1.1-2.6-0.8-4.2
						c0,0,0.3,0.1,0.5,0c-1.6-1.2-2.1-3.4-2.4-5.1c1.2,0.6,0.6,0.8,1.9,0.5c-0.2-0.7-2.1,0.1-2.4-1.3c0.7-0.4,1.4-1.5,2.8-1.5l0,1.4
						c1.8-0.6,0-1.8,0.4-2.5l0.8,0.1c-0.2-2.1-2.1-2.2-1.9-4.5l-0.6,0.2c-1.9-1.3,1.1-1-0.3-2.3l2-0.3c-0.4-0.8-1.8-2.9-2.1-4.4
						c1.4,0.9,2.1,2.6,2.9,3.7c0-0.8,0-2.7-1-3.2c0.2,0.3,0.6,0.8,0.3,1.1c-1.5-1-2.2-2.4-2.1-4c3.8,0.4,1.1-4.1,4.1-5.2
						c-1.3-2.9,0.8-5.6,0.7-8.9c-3,1.1-0.1-1-3.1-0.9c-0.2-0.8-0.1-1.1,0.1-1.1l1.9-2.3c0.9-0.5,0.7,0.8,1.3,0.7
						c0.3-1.7,1.3-0.7,2.2-1.8c-1.1,0.2-1.6-0.6-1.1-1.6l-1.4,1.3c-1.6-2.4,2.6-2,1.1-4.4l0.9,0.8c-0.5-1.2,0.1-4.5-2.3-5.8
						c0.4-0.2,1.2-0.5,1.4,0.1c0.4-2.9-2.5-6.5-1-8.8l0.7,0.2c-0.2-0.5-1.4-1-0.6-1.6c0.3,0,0.7,0.2,0.8,0c-0.3-0.3-1.3-1.5-0.9-2.2
						l0.8,0.6c1-2.9-2-4.4-2.5-6.8c2.2,0,2.9-2.2,3.3-3.4l0.3,0c0.3-3.3-1.8-5.6-2.7-8.7c2.4-1.9,1-6.5,2.3-9.5
						c-0.4,0.5-1.7-0.1-1.9-0.6c0.4-0.7-1.6-2,0.5-1.9l0,0.3c2-0.6,1.4-2,1.5-3.2l-2.6-0.2c3.8-3.1-1.5-7.9,1.9-9.6
						c-0.7-0.7-0.7-1.6-1.3-2.3l1.4,0c0.3-2,0.5-3,0.1-5.5l1,0.5c0.1-1.4-4.1-1.7-4.2-3l2.1-0.4c-0.1-2.4,1.8-4.9-0.2-7.3
						c0.3,0,0.9,0.1,1,0.5c0-1.2,1.4-4.5-1.5-4c1.9-0.1,0.2-2.5-0.7-3.8l1.4,0.2c-1.8-1.1-2.3-1.1-2.8-2.7c0.2-0.4,1.1-0.3,0.8,0.2
						c0.7-1.2-1.3-0.9-0.6-2.4l0.9,0.5c0.1-1.3-0.4-1.2-1.4-1.8c-0.6-0.8,0.3-2.4,1.6-2.6c-0.8-0.2-1.8-0.8-1.4-1.6
						c0.5-0.1,0.8,0.2,0.9,0.3c0.9-2.1-1.6-3.1-0.3-4.6c0.5,0,0.7-0.1,0.8-0.2c0,1.7-0.1,3-0.2,2.9c1.3,0,1.5-1.4,3.3-0.3
						c-1-1.1-3.1-2.9-2.5-4.3c0.1-0.1,0.2-0.1,0.4-0.2l0.1,0.1c0.1-0.3,0-0.6-0.2-0.8c0.2-0.4,0.4-0.7,0.4-1.1
						c1.1-0.2,0.6-1.6,0.6-2.2c-1.4,0.1-1.2-0.8-2.3,0c0.1-0.1,0.2,0.1,0.2,0.6c0,0.1,0.1,0.2,0.1,0.3c0,0-0.1,0-0.1,0
						c0,0.4,0.1,1,0.1,1.7c-0.7-0.5-1.3-1.1-0.5-1.8c-0.9-0.3-1.8-0.7-2.3-0.9c2-0.9,3-2.7,4.2-3c-0.8-2.1-0.5-4.9-3.1-6.2
						c-0.3-0.6,0.8-0.7,1.2-0.9c0.3,0.3,0.2,0.7,0.6,0.9c-0.7-1.2-0.2-3.5-2.1-3.8c0.8-1.5,1.7,0.8,1.4-1.2l0.6,0.3
						c3-3.9-4.6-6.6-0.8-10.9c-0.2,0.3-0.3,0.5-0.7,0.5c1.7-5-1.3-10.4,1.5-15.3c0.6-1.4-0.6-1.6-1.4-2.5l1.5-0.2l-1.7-1.5
						c-1.2-2.2,3.9-3.4,1.6-6.2l-1,0.3c0.2-0.9-0.4-3,0.7-2.8c-0.2-0.1-1-0.4-0.5-0.7l0.8,0l-1.2-2.4c0.7-1.8,3.1,0.5,3.4-2.1
						c-0.2-1-2.1-2.9-2.7-2.6c-0.1,0.4-0.6,1-1.3,1l-0.4-0.9c-2.3-0.3-4.6-1.2-6.4,0.9l1.3,1.6l-1.2,0.4l0-1.3
						c-1.1,0.7-0.2,1.2,0.4,1.8c-0.6,0.1-1,0.3-1.3,0.6l2.1,1.7c-0.9,0.1-1.8-0.8-2.3,0.2c1,0.8,2.1-0.6,2.7,0.7
						c-1.1,0.7-1.9,0.4-1.1,1.3c-0.6,0.1-1-0.1-1.2-0.5c0.7,0.8,0.2,2.1,1.4,2.5c-1.3,0.7,0.2,2.6-2,2.5c0.5,0.3,1.7,1.5,1.7,2.2
						c-2.6-1.4-0.3,2.7-3.1,2.2c2.3,1.1,0.9,3.5,2.2,5.3c-0.2-0.1-0.6-0.3-0.4-0.4c-0.2,1-1,1.2-1.4,1.8c2,0.2,2.4,1.7,3.5,2.5
						c-1.9,1.1-2.3-0.8-4.1-0.5c1.6,0,1.5,2.1,2.9,1.7c-1.2,0.9-0.6,0.8-2.2,1.2c2.4,0.2,0.4,0.9,1.9,1.6c-1.2,1.3-2.3,0.3-1.6,1.7
						C118.6,39.7,117.7,38.4,117.7,38.4z M121.7,72.4C121.7,72.4,121.7,72.4,121.7,72.4c-0.1-0.3-0.1-0.5-0.1-0.7
						C121.6,71.9,121.6,72.1,121.7,72.4z M121.7,75.3c0.1-0.3,0.1-0.8,0-1.2c0.5-0.1,1,0,1,0.3C122.4,74.2,122.1,74.9,121.7,75.3z
						 M131.4,69.2c0.2,0.4-0.1,0.6-0.4,0.7c0-0.2-0.1-0.5-0.2-0.8c0,0-0.1,0-0.2-0.1C131,69.1,131.2,69.1,131.4,69.2z"/>
					<path class="st1" d="M129.6,68.4c0-0.1-0.1-0.1-0.1-0.2c-0.1,0.1-0.2,0.2-0.3,0.3c0.2,0.1,0.3,0.1,0.4,0.2
						C129.6,68.6,129.6,68.5,129.6,68.4z"/>
					<path class="st1" d="M124.6,326.2L124.6,326.2c0,0-0.1,0-0.2,0.1C124.5,326.2,124.6,326.2,124.6,326.2z"/>
					<polygon class="st1" points="119.5,114.6 119.8,114.6 119.5,114.4 					"/>
					<path class="st1" d="M120.8,342.1c-0.1,0-0.2,0.1-0.3,0.2C120.5,342.4,120.6,342.3,120.8,342.1z"/>
					<path class="st1" d="M121,349l-0.4,1C120.9,349.5,121,349.2,121,349z"/>
					<path class="st1" d="M120.9,354.2c0.3,0,0.4,0,0.6,0c0,0,0,0,0,0L120.9,354.2z"/>
					<path class="st1" d="M116.9,271c0-0.1,0-0.1-0.1-0.2C116.6,270.4,116.7,270.7,116.9,271z"/>
					<path class="st1" d="M119.8,295.8c-0.3-0.3-0.5-0.5-0.7-0.8C119,295.5,119,295.8,119.8,295.8z"/>
					<path class="st1" d="M116.2,243.4C116.2,243.4,116.2,243.4,116.2,243.4c0-0.1,0-0.1,0-0.2L116.2,243.4z"/>
					<path class="st1" d="M119.1,293.9c-0.3,0.4-0.2,0.8,0,1.1C119.2,294.7,119.4,294.2,119.1,293.9z"/>
					<path class="st1" d="M123.3,376.9l0,0.3c0.1,0,0.2,0,0.2,0L123.3,376.9z"/>
					<path class="st1" d="M123.5,377.2l0.2,0.3C123.7,377.3,123.6,377.2,123.5,377.2z"/>
					<path class="st1" d="M124.1,377.9l-0.4-0.5C123.7,377.6,123.7,377.9,124.1,377.9z"/>
					<path class="st1" d="M122.8,369.9l-0.5,0C122.4,370,122.5,370,122.8,369.9z"/>
					<path class="st1" d="M122.4,367.9c-0.1,0.5-0.9,1.4-0.5,2.1l0.4,0C121.5,369.7,123.3,368.2,122.4,367.9z"/>
					<path class="st1" d="M127.5,358.4l-0.2,1.8c0.5-0.4,1.2-0.9,1.4-0.1C130.1,357.7,127.6,360.7,127.5,358.4z"/>
					<path class="st1" d="M127.7,352.9c0.3,0.9,0.8-0.1,1.1-0.1C128.3,352.3,128.1,352.2,127.7,352.9z"/>
					<path class="st1" d="M125.3,313.9l1.3,0.1C126.4,313.3,126.1,314,125.3,313.9z"/>
					<polygon class="st1" points="118.6,306.6 117.8,307.3 118.9,307.6 					"/>
					<polygon class="st1" points="127.6,302 127.8,302.3 127.3,301.1 					"/>
					<path class="st1" d="M128.8,236.3l-1.6,0.1C127.5,236.9,129.3,237.1,128.8,236.3z"/>
					<path class="st1" d="M128.5,207.7c0.8-0.3,1.3-1.1,0.6-1.6C128.9,206.8,128.3,207.4,128.5,207.7z"/>
					<polygon class="st1" points="132.2,122 132.7,122.6 132.3,121.5 					"/>
				</g>
			</g>
		</g>
	</g>
</g>
<g class="st0">
	<g>
		<g>
			<g>
				<g>
					<path class="st1" d="M376.3,265.2c0.2-0.4,0-1.4-0.5-1.2l-0.3,1.7L376.3,265.2z"/>
					<path class="st1" d="M372.6,262.4c-0.6,0.8-1.2,2.3-0.7,3.8c0.5-1.6,0.7-1,1.2-2.9c0.5-0.2,1,0.5,0.9,1.1
						c0.2-0.4,0.8,0.3,1.1-0.7c-0.8-1.2-1.6-1.2-2.5-0.1C372.4,263.1,372.6,262.7,372.6,262.4z"/>
					<path class="st1" d="M321.2,261.7l0.3,0.2C321.5,261.8,321.3,261.8,321.2,261.7z"/>
					<path class="st1" d="M289.4,260.9c0.2,0,0.3-0.2,0.4-0.4C289.6,260.7,289.4,260.8,289.4,260.9z"/>
					<path class="st1" d="M284.1,259.1c0.1,0.1,0.2,0.1,0.3,0.1C284.2,259,284.1,258.9,284.1,259.1z"/>
					<path class="st1" d="M321.2,261.7l-0.9-0.5C320.3,261.8,320.8,261.6,321.2,261.7z"/>
					<path class="st1" d="M365.7,266.8c0.2-0.1,0.3-0.3,0.4-0.5c-0.1,0.1-0.3,0.1-0.4,0.2C365.8,266.6,365.7,266.7,365.7,266.8z"/>
					<path class="st1" d="M335.2,260.1l0.3,0c0.1-0.2,0.1-0.4,0.2-0.7L335.2,260.1z"/>
					<path class="st1" d="M345.9,259.5c-0.2-0.1-0.3,1.4-0.3,2c0.1-0.6,0.3-0.9,0.5-1C346,260.3,346,259.9,345.9,259.5z"/>
					<path class="st1" d="M363,261.2l0.3-0.2C363.2,261.1,363.1,261.1,363,261.2z"/>
					<path class="st1" d="M327.5,260c0-0.2-0.1-0.4-0.1-0.5C327.4,259.7,327.4,259.9,327.5,260z"/>
					<path class="st1" d="M26.7,264.2c0-0.1,0-0.2,0-0.2C26.7,264.1,26.6,264.2,26.7,264.2z"/>
					<path class="st1" d="M14,257.6l0.2-0.1c0-0.3,0-0.5,0-0.8L14,257.6z"/>
					<path class="st1" d="M274.2,257.1C274.2,257.1,274.2,257.1,274.2,257.1C274.5,256.9,274.3,257,274.2,257.1z"/>
					<path class="st1" d="M183.1,254.9c1,1.3-1.8,1.5-0.3,3C182.7,257.4,184.3,255.8,183.1,254.9z"/>
					<path class="st1" d="M365.5,266.6c-0.1,0-0.3,0-0.4,0C365.2,266.7,365.4,266.7,365.5,266.6z"/>
					<path class="st1" d="M182.8,257.9L182.8,257.9l0.2,0.1C182.9,258,182.9,258,182.8,257.9z"/>
					<path class="st1" d="M251.3,257.4c0,0.2,0.1,0.4,0.2,0.6C251.5,257.8,251.5,257.7,251.3,257.4z"/>
					<path class="st1" d="M268.3,259.8l-0.4-0.2C268,259.7,268.2,259.8,268.3,259.8z"/>
					<path class="st1" d="M242.4,259.1c-0.2-0.1-0.3-0.3-0.6-0.1c0,0.1,0.1,0.1,0.1,0.2C242,258.9,242.2,258.9,242.4,259.1z"/>
					<path class="st1" d="M233.2,258.8c0,0.1,0.1,0.2,0.2,0.3c0.1,0,0.2,0,0.3-0.1L233.2,258.8z"/>
					<path class="st1" d="M54.6,263.1c-0.2-0.4-0.3-0.8-0.4-1.3C54.3,262.8,53,263.2,54.6,263.1z"/>
					<path class="st1" d="M365.7,266c0,0.4-0.1,0.5-0.2,0.6c0.1,0,0.2-0.1,0.3-0.1C365.8,266.3,365.8,266.1,365.7,266z"/>
					<path class="st1" d="M241.7,270.2l-1.5-0.3C240.6,270.1,241.1,270.1,241.7,270.2z"/>
					<path class="st1" d="M120.5,263.9l-0.3,0.2C120.3,264.1,120.5,264.1,120.5,263.9z"/>
					<path class="st1" d="M235.8,270c-0.2-0.5-0.5-0.8-0.8-1c-0.1,0.1-0.1,0.2-0.2,0.4L235.8,270z"/>
					<path class="st1" d="M54.2,261.8C54.2,261.8,54.2,261.8,54.2,261.8C54.2,261.8,54.2,261.8,54.2,261.8z"/>
					<path class="st1" d="M44.6,265.2c1.4,0,0.6-1.8,0.9-2.9c1.7-0.5,0.8,1.4,1.4,2.3c1-0.5,1.8-2.2,2.6-2.1c0.1,0.3,0.2,0.4,0,0.8
						c1.1-1.5,3.2-0.1,4.5-2c0.1,0.2,0.1,0.3,0.2,0.5c-0.2-0.9-0.2-1.9-0.2-2.5c0.6,0,1.2-1.2,1.4,0c-0.4,0-0.4,0.5-0.6,0.8l0.7-0.5
						c0.6,1.7-0.9,0.6-0.9,1.9c1.3-0.6,2.8-2,3.7-1.5c0.2,1.7-2.3,0.6-1,2.1l-1.5-0.6c1.2,2.7-0.9-0.2,0.2,2.7
						c2,0.5,2.2-0.9,4.2-0.4c0.4-0.9-0.1-1.4,0.3-2.3c2.8-1.7,2.2,4.3,4.3,2c0.5-1.1,0.8-3.3,2.2-2.1l-0.5,1.9
						c1.9,0.2,1.1-2.8,3.1-1.4c-0.4,0.8-1.5,0.6-1.2,0.9c1.3,1.5,0.9-1.1,1.9-1.1l0.2,1.7c2.1-0.3,4.3-1.5,6.6-1.8
						c-0.1,0.5-0.5,1,0,1.6c2.9-0.8,6.1,0.3,8.9,1.3l1.1-1.4c0.2,0,0.4,0.7,0.2,1c1.1,0.6,0.1-0.9,0.6-1.5c0.6-0.1,0.8,0.9,0.4,1.3
						c1.9-1.2,5.5-2.6,7.4-1l-0.4,0.4c1.5,0.6,1.8-3,3.2-1.6l-0.3,0.3c3.4,0.7,7.1-0.6,9.7,1.7c0.6-2.1,3.3,1,3.6-1.9
						c1.9,1.5,1.3,2,4,3.1c0.7,0.2,1.1-1.8,2-2.1l0,1.5l1.3-1.6l0.6,1.9l0.9-0.4c-0.3-0.1-0.7-0.7-0.6-1.2c1.3-0.7,3.2,1.2,3.2,2
						l3.2-1.2c-0.1,0.6-0.6,0.8-1,1.2c1.7-1.5,0.2,1.6,1.8,0.2c-0.2-0.4,0.1-0.9,0.2-1.2c0.7,1,2.5,1,3.8,0.7l-0.3,1.1
						c2.3,0.4,4.9-0.3,7.5-0.2c-0.9-0.5-0.6-2.4,0.1-2.5l0.2,1.6c0.5-1-0.8-0.6,0.3-1.8c1,0.2,0.6,1.9,0,2.4l1.2-0.5
						c0.1,0.5-0.2,0.7-0.3,1.4c0.5-1,2,1.7,2.7,0l0,0.5c2.6,0.1,3.8-0.4,5.9-0.4c0.1-1.4,0.9-1.1,1.6-2.2c1.5,0.5,3.2,1.7,5.1,1.7
						c1.3-0.6,0.4-1.2,1.1-2c0,1.3,1.9,1.2,0.9,2.1c2.3-0.1,2.9-0.1,5.8-1.1c-0.3-0.5-0.6-0.8-0.4-1.2c0.5-0.2,1.2,0.6,1.1,1.2
						l-0.1,0.1c3.3-1.8,7.2,4,9.9,1.5l-0.1,0.1l2.7-1.3c1.2,0.3-0.8,0.9,0.1,1.8c2.9-2,4.5,0.5,6.9-0.8c1.6,3.9,6.4,0,8.8,2.5
						l-0.1-0.9c0.7-0.8,0.7,0.5,1.2,0.8c0-0.7-0.7-0.8-0.2-1.3c5.4-0.8,11,1.8,16.5,2.8c2,0.3,1.3-4.6,3.8-2.3l-0.8,1.6
						c4.1-1.8,8.3,0.4,12.3-1.1c-0.3,0.4-0.3,0.9-0.7,0.8c0.8,1.2,3.1,0.2,3.2-0.8c0.6,0.1,0.1,0.9,0.5,1.4c0.8,0.7,2.2-1.5,2.6-0.2
						c0.1,0.2-0.3,0.4-0.4,0.5c0.6-0.6,2.6,0.2,2.1-1.2c1.5,0.7,2.9-0.5,4,0.4c0.8-1.5,2.5,0.8,2.9-1.3c-0.2,2.3,2.6,1.9,3.5,0.9
						c-0.3,0.7,0.8,0.7,0.4,1.7c1.1,0,2.1-0.4,1.9-1.6c1.9,2.8,4.1-2.1,5.1,1.4c3.2-1.1,6.2-1.9,9.1-2.3c-0.2,2.3-3.2,0.1-3.1,2.5
						c2.8-0.8,4.4-2.7,7.1-2.1c0.7,0.3-0.4,1-0.7,1.3c2.8-0.8,5.3,0.3,7.7-0.9c0,0.2-0.3,0.4-0.5,0.6c0.5-0.1,1.1,0.4,1.1-0.7
						l-0.5,0.3c-0.7-1.5,2-3.1,2.1-3.9c-0.9,2.9,2.4,0.8,1,4.5c0.3-0.2,0.7-0.7,0.7-1.4c0.5,0.2,0.6,0.6,0.1,1.4
						c1.7-0.5,1.1-1.6,2.7-1.6c0,0.5-0.3,0.7-0.5,1.3c0.8-1,1.6-1.9,2.9-1.5c-0.1,0.3,0.1,0.7-0.3,0.7c2.3-0.1,3.9-2.5,6.3-1.5
						c-0.8,2.1,0.8,0.7,0.9,2.6l1.3-0.5l-0.5-0.9c1.2,0,2.2-1.3,3.2-0.7l-0.9,0.8l2.2-0.3l-1.2-0.7c1.2-1-0.1-2.4,1.4-1.8
						c-0.3,0.2,1.2,0,1.8,1.1l0,0c0.6-0.6,1.2-1.2,2-0.7c0.2,0.6-0.2,2.1,0,2.5c0.6-1.6,2.7-0.4,3.5-2.1c-0.2,0.4-0.3,1.4-0.2,1.6
						l0.5-1.3c0.5,0.4,0.6,0.6,0.5,1.4c1.6,0.2-0.5-2.4,1.4-1.3c-0.2,0.1-0.1,0.3-0.4,0.5c1.9,0.5,3.7-0.8,5.5-0.2
						c0.5,1.9-1.6,0.5-1,2c2.6-0.3,5.3-2.2,7.8-1.8l-0.5-0.2c0.3-2.7,1.9,1.3,3.1,0c-0.3,0.2-0.4,1.5-0.3,1.2c1.7,0.4,3.5-0.7,6-1.6
						l-0.3,0.7c1,0.6,2.6,0.3,3.7,0.6c0.3-0.7,0.9-0.6,0.5-1.6c3.4,3.8,6.3-2.1,9.3,1c-0.4,0-0.8,0.6-0.5,0.6l2.5-0.7
						c-0.2-1.1-0.3-0.7-0.9-1.6c0.3-0.7,1-1.2,1.6-1.3c-1.1,0.8,0.1,1.9,0.6,2.5c-0.1-0.4,0.1-0.7,0-1.1c1.4,2,0.2-2.3,2-1l-0.1,0.6
						c0.7-0.3,1.3-1.2,2-1c0.3,1.3-0.7,0.6-0.7,1.7c1-0.1,1.9-2.6,2.9-1.3c-0.4,0.4-1,0.4-1.5,0.8c1.1,1.5,1.2,1.1,1.9,1.4l-0.1,0
						l1.8,0.7l-0.5-0.4c1.1-3.5,2.6-0.7,4.2-3.1c-1.6,2.2-0.2,1.3-0.3,2.8c0.5,0.4,1.1,0.9,1,1.3c0.8-1.2,1.4,0.9,2.5-0.9
						c0.1,0.5,0.9,0,0.7,1.2c1-0.4-0.3-0.8-0.2-1.5c1.6-1.7,3.9,1.8,6.2-0.6c2-1.1,2.3-2.7,4.1-3.6c0.7,0.7-0.4,1.8-0.4,1.8
						c1.1,0.7,1.8,0.5,2.7-0.1c-0.2,0.4,0.1,0.8,0.4,1.3c0.8-0.2,0.4-1.8,1.5-1.1c-0.1,0.6-0.3,1.4-0.7,2c0.9-0.5,1.7-1.5,2.6-1.9
						c0.3,0.8-0.5,1.3-0.8,1.9c1-0.4,2.7-0.9,2.9-2.3l-0.7-0.4c0.4-0.1,0.3,1.1,0,1.4c-0.8,1.1-1.3-0.4-1.4-0.9l0.6-0.3
						c-0.9-2.8-2.7,0.6-4,0.5l0.4-2.1l-1.3,1.8c-0.3-0.5-0.6-1.7,0.1-2c-1-1-0.8,0.8-1.7-0.3c-0.1-0.2-0.1-0.3,0-0.4l-0.9,0.7
						c0.2-0.4-0.2-1.5,0.4-1.2c-1.7-1.1-2.6,1.7-3.4,0.2l0.1-0.1c-2.3,0.8-0.1,1.5-1.8,3.4l-1.4-3.7l-0.2,1.5
						c-0.2,0-0.7-0.1-0.7-0.7c-0.9,1.1,0.2,0.7-0.3,1.7c-1.2-1.3-3.2,0.8-3.5-1.6c-0.4,1.2,1.2,0.9-0.1,1.7
						c-0.5-2.6-1.4,0.5-2.5-0.7c0.3-1.4,1.3-0.7,0.2-1.8c-0.6,2.3-2.1-0.4-3,0c0,1.8-1.9,0.8-3.4,1.5c0.1-0.6-2.9-0.9-4.3-1.5l0-0.3
						c-0.2,1.8-1.7,1.5-2.7,2c0-1.1,0.2-1.5,0.7-2l-1,0c-0.2,0.6-0.5,0.9-1.2,1.1l0.2-1.4c-1.3,0.1-2.6,1.7-4.3,0.8
						c-0.1,1.3,1.4,3.5-0.3,4.4c-0.1-0.7-0.2-1.9,0.3-2.2c-0.2,0.1-0.5,0.6-0.9,0.3l0.7-1.2c-0.8-0.5-0.4,1-1,0.9
						c0-1-0.5-0.7-0.4-1.5c0.2-0.1,0.5,0.4,0.8,0c-0.7-0.2-1.5-0.7-1.8-1.5c0.1,0.6,0,1.3-0.5,1.5c-1.3,0.1-0.5-1.2-1.2-1.7
						c-0.3,0.7-1.2,0-1.2,1.5c-0.4,0-0.5-0.7-0.6-1.1c-0.7,0.7-3.2,0.2-2.4,1.8l0.2,0.1c0,0-0.1,0-0.1,0.1c0,0,0,0,0,0l0,0
						c-2.2,1.5-4.6-0.8-6.9-0.1l0-0.5c-1.3,0.6-2.9,0.4-3.9,1.4c-0.4,0-0.9-0.9-0.8-1.5c-1,0.4-1.1,1-2.6,0.1c1-0.9-0.4-0.8,1-0.6
						c-1.3-0.4-1.6-1.2-3,0.1c0.5-1.3-1-1.6-1.6-1.2l0.9,0.9c-0.7,0.2-1.3,0.1-1.9,0l0.3-1.7c-2.7-2-4.8,3.4-6.9,0
						c-0.7,1.2,1.5,0.8,0.8,2.2c-1.2-0.2-2.5-2.6-2.9-2.6c-1.7-0.9-1.6,2.4-3.4,1.8c0.2,0.6,0.4,2.2-0.9,2.7c-1.2-0.2-1.5-2.5-0.7-3
						c0.3,0,0.4,0.1,0.4,0.3c0.4-0.2,0.9-0.5,0.4-1.1l-0.2,0.6c-0.6-0.6-2.3-0.6-1.9-1.5c-0.9,0.6-0.4,1,0.3,1.3
						c-1.6-0.9-2.5,0-4.1-0.6c0.3,0.3,0.5,1,0.2,1c-2.4-0.8-1.1,1.1-2.7,1.3c-0.9-0.9,0.4-2.2-1.3-1.4c-1-0.6-0.2-1.6,0.2-2.1
						c-1.5,1.1-2.8-0.8-3.6-1l0.8-0.5c-0.5,0.3-0.9,0.3-1.2,0.3l0.4,1.2c-0.5-0.2-0.8-0.2-0.8-0.7c-0.5,0.8,0.3,2-0.6,3
						c-0.6-0.6-1.9,0.6-2.1-1c1.9,0.6-0.2-1.6,1.5-1.8c-0.3,0.2-0.7,0.2-1.2,0c-0.1-0.2,0.1-0.3,0.2-0.4c-1.8-1.4-0.9,1.8-2.8,1.7
						c0.3-0.9-0.4-1.7-0.7-1.5c0.8,0,0.3,1.5-0.4,2.2c-1.2-0.7-1.3,0.5-2,0.4l0.7,0.3c-0.3,0.9-0.9,0.8-1.7,1
						c-0.1-0.7,0.8-0.5,0.5-0.8c-1,1.5-2.1-1.7-3.5-0.6c-0.6-0.6,0-1.7-0.5-2.1c-1.5,1.1-1.6-1.3-3.2-0.4c0.4,1.2,0.5,0.9-0.6,2
						l2.6-0.8l-1.7,1.7c0.8,0,1.7-0.7,2.1-0.5c-0.8,0.9-0.7,0.7-0.4,1.7c-1-1.8-2.1,1-3.3-0.3l0.1-3c-1.8-1.4-3.3,1.4-5.7,0.6
						l0.8,0.5c-0.4,1.2-1.5,0.1-2.3,0.6c0.1-1-0.4-1.4-0.7-2c0,0.7-1.7-0.1-2,1.8l-1-1.3c-1.9-0.6-2.3,2.7-4.1,2.4
						c0.6-1.1-0.2-1.8,1-2.5c-0.6,0-1.2-0.2-1.2,0.5c-0.3-0.6-1.8,1.3-2.3,0.3c-0.3,0.4-0.4,1.5-1.1,1.4c-0.1-0.2,0-0.5,0-0.5
						c0,0.5-1.1,0.6-0.5,1.7c-1.8-3.1-5.3,0-6.9-2.7c-1.4,0.3-3,0.5-4.2,0.6c0.1-0.3,0-0.5,0.3-0.4c-1.7-1-1.1,2.8-3,1.7
						c-0.9-1.6,1.1-0.8,0.5-1.5c-0.1-3.3-2.3,0.4-3.6-1.6l0.3-0.2c-0.9-1.1-2.5,1.1-4.1,0.8c0,0,0.1-0.3,0-0.5
						c-1.2,1.6-3.3,2.1-4.9,2.5c0.5-1.2,0.7-0.6,0.5-1.9c-0.7,0.2,0.1,2.1-1.3,2.4c-0.4-0.7-1.4-1.4-1.5-2.7l1.3,0
						c-0.6-1.8-1.7,0-2.4-0.3l0.1-0.8c-2,0.2-2.1,2.1-4.3,1.9l0.2,0.6c-1.3,1.9-0.9-1.1-2.2,0.3l-0.3-2c-0.8,0.4-2.8,1.8-4.2,2.1
						c0.9-1.4,2.5-2.1,3.6-2.9c-0.8,0-2.6,0-3.1,1c0.3-0.2,0.7-0.6,1-0.3c-1,1.5-2.3,2.2-3.8,2.1c0.4-3.8-4-1.1-5-4.2
						c-2.8,1.3-5.4-0.8-8.6-0.8c1,3-0.9,0-0.9,3.1c-0.7,0.2-1,0.1-1.1-0.1l-2.2-1.9c-0.5-0.9,0.7-0.6,0.7-1.3
						c-1.6-0.3-0.6-1.3-1.7-2.2c0.2,1.1-0.6,1.5-1.5,1.1l1.2,1.5c-2.3,1.5-1.8-2.6-4.2-1.1l0.8-0.9c-1.2,0.5-4.3-0.2-5.6,2.2
						c-0.2-0.4-0.4-1.2,0.1-1.4c-2.8-0.5-6.4,2.3-8.5,0.7l0.2-0.7c-0.5,0.2-1,1.4-1.6,0.6c0-0.3,0.2-0.7,0-0.8
						c-0.3,0.2-1.4,1.2-2.1,0.8l0.6-0.8c-2.7-1.1-4.3,1.9-6.6,2.3c0.1-2.2-2-3-3.1-3.4l0.1-0.3c-3.2-0.4-5.5,1.6-8.5,2.4
						c-1.7-2.5-6.2-1.2-9.1-2.7c0.4,0.4-0.1,1.7-0.7,1.9c-0.7-0.5-2,1.5-1.8-0.6l0.2,0c-0.5-2-1.9-1.5-3-1.6l-0.3,2.6
						c-2.8-3.9-7.7,1.2-9.1-2.3c-0.7,0.6-1.6,0.6-2.3,1.2l0.1-1.4c-1.9-0.4-2.9-0.6-5.3-0.4l0.5-1c-1.4-0.1-1.8,4-3.1,4.1l-0.3-2.1
						c-2.4-0.1-4.7-1.9-7.1-0.1c0-0.3,0.1-0.9,0.5-1c-1.1-0.1-4.3-1.5-3.9,1.4c0-1.9-2.4-0.2-3.7,0.6l0.2-1.4
						c-1.1,1.8-1.2,2.2-2.7,2.7c-0.4-0.2-0.3-1.1,0.2-0.8c-1.2-0.8-0.9,1.3-2.4,0.5l0.6-0.9c-1.2-0.1-1.1,0.3-1.8,1.4
						c-0.8,0.5-2.3-0.4-2.5-1.7c-0.2,0.8-0.9,1.8-1.6,1.4c-0.1-0.5,0.2-0.8,0.3-0.9c-2-1-3.1,1.6-4.4,0.2c0-0.5-0.1-0.7-0.2-0.8
						c1.6,0,2.9,0.1,2.8,0.2c0-1.3-1.3-1.5-0.2-3.3c-1.1,1-2.9,3.1-4.2,2.4c-0.1-0.1-0.1-0.2-0.2-0.4l0.1-0.1
						c-0.3-0.1-0.6,0-0.8,0.2c-0.4-0.2-0.7-0.4-1.1-0.4c-0.1-1.1-1.5-0.6-2.2-0.6c0,1.4-0.8,1.2,0,2.3c-0.1-0.1,0.1-0.2,0.6-0.2
						c0.1,0,0.2-0.1,0.3-0.1c0,0,0,0.1,0,0.1c0.4,0,1-0.1,1.6-0.1c-0.5,0.7-1.1,1.3-1.8,0.5c-0.3,0.9-0.7,1.8-0.9,2.3
						c-0.9-2-2.6-3-2.8-4.2c-2,0.8-4.7,0.5-6,3.1c-0.6,0.3-0.7-0.8-0.9-1.2c0.3-0.3,0.7-0.2,0.9-0.6c-1.1,0.7-3.4,0.2-3.6,2.1
						c-1.4-0.8,0.8-1.7-1.2-1.4l0.3-0.6c-3.9-2.9-6.3,4.8-10.6,1c0.3,0.2,0.4,0.3,0.5,0.6c-4.9-1.6-10,1.6-14.9-0.9
						c-1.4-0.5-1.5,0.7-2.3,1.6l-0.3-1.5l-1.4,1.8c-2,1.3-3.6-3.6-6.1-1.1l0.4,1c-0.9-0.2-2.9,0.7-2.8-0.5c-0.1,0.2-0.3,1.1-0.6,0.5
						l-0.1-0.8l-2.2,1.4c-1.8-0.5,0.2-3.1-2.4-3.2c-0.9,0.3-2.6,2.4-2.2,2.9c0.4,0,1,0.5,1.1,1.3l-0.9,0.4c-0.1,2.3-0.6,4.7,1.6,6.3
						l1.4-1.5l0.5,1.1l-1.2,0.1c0.7,1,1.2,0.1,1.6-0.6c0.1,0.6,0.4,1,0.7,1.2l1.4-2.3c0.2,0.9-0.6,1.8,0.4,2.3
						c0.6-1.1-0.7-2,0.4-2.7c0.7,1,0.6,1.9,1.4,1c0.1,0.6,0,1-0.3,1.3c0.7-0.7,1.9-0.4,2.3-1.6c0.8,1.3,2.5-0.4,2.5,1.8
						c0.2-0.5,1.3-1.8,1.9-1.9c-1.2,2.7,2.5,0.1,2.3,2.9c0.9-2.4,3.3-1.1,4.9-2.5c-0.1,0.2-0.3,0.6-0.4,0.5c0.9,0.2,1.2,0.9,1.8,1.3
						c0.1-2,1.5-2.4,2.3-3.6c1.2,1.9-0.6,2.3-0.3,4.1c-0.1-1.6,1.9-1.6,1.5-2.9c0.9,1.2,0.7,0.6,1.2,2.2c0.1-2.5,0.8-0.4,1.5-1.9
						c1.3,1.2,0.3,2.3,1.7,1.5C45.8,264.3,44.6,265.2,44.6,265.2z M77.1,261C77.1,261,77.1,261,77.1,261c-0.3,0.1-0.5,0.1-0.7,0.1
						C76.5,261.1,76.7,261,77.1,261z M79.8,261c-0.3-0.1-0.7-0.1-1.2-0.1c-0.1-0.5,0-1,0.3-1C78.8,260.3,79.4,260.6,79.8,261z
						 M74.1,251.2c0.4-0.2,0.6,0.1,0.6,0.4c-0.2,0-0.4,0.1-0.8,0.2c0,0,0,0.1-0.1,0.2C74,251.6,74,251.4,74.1,251.2z"/>
					<path class="st1" d="M73.3,253c-0.1,0-0.1,0.1-0.2,0.1c0.1,0.1,0.2,0.2,0.3,0.3c0.1-0.2,0.1-0.3,0.2-0.4
						C73.5,253,73.4,253,73.3,253z"/>
					<path class="st1" d="M321.6,262L321.6,262c0,0,0,0.1,0.1,0.2C321.6,262.1,321.6,262,321.6,262z"/>
					<polygon class="st1" points="117.5,264.5 117.5,264.2 117.2,264.5 					"/>
					<path class="st1" d="M336.8,266.5c0,0.1,0.1,0.2,0.2,0.4C337,266.7,336.9,266.6,336.8,266.5z"/>
					<path class="st1" d="M343.4,266.6l0.9,0.5C343.9,266.8,343.6,266.7,343.4,266.6z"/>
					<path class="st1" d="M348.4,267.1c0.1-0.2,0.1-0.4,0.1-0.6c0,0,0,0,0,0L348.4,267.1z"/>
					<path class="st1" d="M268.4,269.2c-0.1,0-0.1,0-0.2,0.1C267.8,269.5,268.1,269.4,268.4,269.2z"/>
					<path class="st1" d="M292.3,266.3c-0.3,0.3-0.5,0.5-0.8,0.7C291.9,267,292.2,267.1,292.3,266.3z"/>
					<path class="st1" d="M241.8,270.2C241.8,270.2,241.8,270.2,241.8,270.2c-0.1,0-0.1,0-0.2,0L241.8,270.2z"/>
					<path class="st1" d="M290.4,266.9c0.4,0.3,0.8,0.2,1.1,0C291.1,266.8,290.7,266.7,290.4,266.9z"/>
					<path class="st1" d="M370.2,266.6l0.2,0c0-0.1,0-0.2,0-0.2L370.2,266.6z"/>
					<path class="st1" d="M370.5,266.5l0.3-0.2C370.6,266.3,370.5,266.3,370.5,266.5z"/>
					<path class="st1" d="M371.3,265.9l-0.5,0.4C371,266.3,371.2,266.3,371.3,265.9z"/>
					<path class="st1" d="M363.5,266.4l0,0.5C363.5,266.8,363.5,266.6,363.5,266.4z"/>
					<path class="st1" d="M361.5,266.6c0.5,0.1,1.3,1,1.9,0.7l0-0.4C363.2,267.7,361.9,265.8,361.5,266.6z"/>
					<path class="st1" d="M352.8,260.8c0.6,0.1,1.1,0.2,1.7,0.3c-0.3-0.5-0.7-1.2,0-1.4C352.3,258.2,355,260.9,352.8,260.8z"/>
					<path class="st1" d="M347.6,260.2c0.9-0.3,0-0.8,0-1.1C347,259.6,346.9,259.7,347.6,260.2z"/>
					<path class="st1" d="M309.8,261l0.1-1.3C309.2,259.9,309.9,260.2,309.8,261z"/>
					<polygon class="st1" points="302.6,267.6 303.3,268.4 303.6,267.2 					"/>
					<polygon class="st1" points="298.3,258.5 298.6,258.3 297.5,258.8 					"/>
					<path class="st1" d="M234.9,257.6l0.2,1.6C235.5,258.9,235.7,257.1,234.9,257.6z"/>
					<path class="st1" d="M207.4,258.1c-0.3-0.8-1-1.3-1.5-0.6C206.5,257.7,207.1,258.3,207.4,258.1z"/>
					<polygon class="st1" points="125.2,252.1 125.7,251.6 124.7,252 					"/>
				</g>
			</g>
		</g>
	</g>
</g>
<g class="st0">
	<g>
		<g>
			<g>
				<g>
					<path class="st1" d="M387.2,136.6c0.2-0.4,0-1.4-0.5-1.2l-0.3,1.7L387.2,136.6z"/>
					<path class="st1" d="M383.3,133.8c-0.6,0.8-1.2,2.3-0.7,3.8c0.5-1.6,0.7-1,1.3-2.9c0.5-0.2,1,0.5,0.9,1.1
						c0.2-0.4,0.9,0.3,1.1-0.7c-0.8-1.2-1.7-1.2-2.5-0.1C383.2,134.6,383.3,134.1,383.3,133.8z"/>
					<path class="st1" d="M330.5,134.3l0.3,0.2C330.8,134.4,330.6,134.3,330.5,134.3z"/>
					<path class="st1" d="M297.8,134.6c0.2,0,0.3-0.2,0.4-0.4C298,134.4,297.8,134.5,297.8,134.6z"/>
					<path class="st1" d="M292.2,133c0.1,0,0.2,0.1,0.3,0.1C292.4,132.9,292.3,132.8,292.2,133z"/>
					<path class="st1" d="M330.5,134.3l-0.9-0.5C329.6,134.3,330.1,134.2,330.5,134.3z"/>
					<path class="st1" d="M376.3,138.3c0.2-0.1,0.3-0.3,0.4-0.5c-0.1,0.1-0.3,0.2-0.4,0.2C376.3,138.1,376.3,138.2,376.3,138.3z"/>
					<path class="st1" d="M344.8,132.2l0.3,0c0.1-0.2,0.1-0.4,0.2-0.7L344.8,132.2z"/>
					<path class="st1" d="M355.8,131.4c-0.3,0-0.3,1.4-0.3,2c0.1-0.6,0.3-0.9,0.5-1C356,132.1,356,131.8,355.8,131.4z"/>
					<path class="st1" d="M373.5,132.8l0.3-0.2C373.7,132.6,373.6,132.7,373.5,132.8z"/>
					<path class="st1" d="M336.9,132.3c0-0.2-0.1-0.4-0.1-0.5C336.8,132,336.8,132.2,336.9,132.3z"/>
					<path class="st1" d="M28.3,139c0-0.1,0-0.2,0-0.2C28.2,138.9,28.2,139,28.3,139z"/>
					<path class="st1" d="M15,133.1l0.2-0.1c0-0.3,0-0.5,0-0.8L15,133.1z"/>
					<path class="st1" d="M282,131.4C282,131.4,282,131.4,282,131.4C282.3,131.3,282.1,131.3,282,131.4z"/>
					<path class="st1" d="M188.6,131.7c1,1.3-1.8,1.5-0.2,3C188.2,134.2,189.8,132.6,188.6,131.7z"/>
					<path class="st1" d="M376,138.1c-0.1,0-0.3,0-0.5,0C375.8,138.2,375.9,138.2,376,138.1z"/>
					<path class="st1" d="M188.3,134.7L188.3,134.7l0.2,0.1C188.4,134.8,188.4,134.8,188.3,134.7z"/>
					<path class="st1" d="M258.5,132.6c0,0.2,0.1,0.4,0.2,0.6C258.8,133.1,258.7,132.9,258.5,132.6z"/>
					<path class="st1" d="M276.1,134.4l-0.4-0.2C275.8,134.3,275.9,134.4,276.1,134.4z"/>
					<path class="st1" d="M249.5,134.6c-0.2-0.1-0.3-0.3-0.6-0.1c0,0.1,0.1,0.1,0.1,0.2C249.1,134.5,249.2,134.4,249.5,134.6z"/>
					<path class="st1" d="M240,134.6c0,0.1,0.1,0.2,0.2,0.3c0.1,0,0.2-0.1,0.3-0.1L240,134.6z"/>
					<path class="st1" d="M56.7,137.3c-0.2-0.4-0.3-0.8-0.4-1.3C56.4,137.1,55,137.4,56.7,137.3z"/>
					<path class="st1" d="M376.3,137.5c0,0.4-0.1,0.5-0.2,0.6c0.1,0,0.2-0.1,0.3-0.1C376.4,137.8,376.4,137.6,376.3,137.5z"/>
					<path class="st1" d="M249.1,145.7l-1.5-0.2C248,145.6,248.6,145.7,249.1,145.7z"/>
					<path class="st1" d="M124.2,139.6l-0.4,0.1C124,139.8,124.1,139.8,124.2,139.6z"/>
					<path class="st1" d="M243.1,145.7c-0.3-0.5-0.6-0.8-0.8-1c-0.1,0.1-0.1,0.2-0.2,0.4L243.1,145.7z"/>
					<path class="st1" d="M56.2,136.1C56.2,136.1,56.2,136.1,56.2,136.1C56.2,136.1,56.2,136.1,56.2,136.1z"/>
					<path class="st1" d="M46.5,139.6c1.4,0,0.6-1.8,0.9-2.9c1.7-0.6,0.8,1.3,1.4,2.3c1-0.5,1.8-2.2,2.6-2.2c0.1,0.3,0.2,0.4,0,0.8
						c1.1-1.5,3.3-0.1,4.6-2c0.1,0.2,0.1,0.3,0.2,0.5c-0.2-0.9-0.3-1.9-0.2-2.5c0.6,0,1.2-1.2,1.4,0c-0.4,0-0.4,0.5-0.6,0.8l0.7-0.5
						c0.6,1.7-0.9,0.6-0.9,1.9c1.3-0.6,2.8-2,3.8-1.5c0.2,1.7-2.3,0.6-1,2.1l-1.5-0.6c1.2,2.7-0.9-0.2,0.2,2.7
						c2,0.5,2.3-0.9,4.3-0.4c0.5-0.9-0.1-1.4,0.3-2.3c2.9-1.7,2.2,4.3,4.4,2c0.6-1.1,0.8-3.3,2.3-2.1l-0.5,1.9
						c2,0.2,1.2-2.7,3.2-1.4c-0.4,0.7-1.6,0.6-1.3,0.8c1.3,1.5,1-1.1,2-1.1l0.2,1.7c2.1-0.2,4.4-1.4,6.8-1.6c-0.1,0.5-0.6,1,0,1.6
						c3-0.8,6.3,0.4,9,1.5l1.1-1.4c0.3,0,0.4,0.7,0.2,1c1.1,0.6,0.1-0.9,0.6-1.5c0.6-0.1,0.8,0.9,0.4,1.3c2-1.2,5.7-2.4,7.6-0.8
						l-0.4,0.4c1.6,0.7,2-2.9,3.4-1.5l-0.3,0.2c3.4,0.8,7.4-0.3,9.9,2c0.6-2.1,3.4,1.1,3.8-1.8c1.9,1.6,1.3,2.1,4,3.2
						c0.7,0.2,1.2-1.8,2.2-2l-0.1,1.5l1.4-1.5l0.6,1.9l0.9-0.3c-0.3-0.1-0.7-0.7-0.6-1.2c1.4-0.6,3.2,1.3,3.2,2.1l3.3-1.1
						c-0.1,0.6-0.7,0.8-1.1,1.2c1.8-1.5,0.2,1.6,1.9,0.3c-0.2-0.4,0.2-0.9,0.2-1.2c0.7,1,2.5,1.1,3.8,0.8l-0.3,1
						c2.4,0.4,5-0.2,7.7,0c-0.9-0.6-0.6-2.4,0.2-2.5l0.2,1.6c0.6-1-0.8-0.7,0.3-1.8c1,0.3,0.6,1.9-0.1,2.4l1.2-0.5
						c0,0.5-0.3,0.7-0.4,1.3c0.6-1,2,1.8,2.8,0.1l0,0.5c2.7,0.2,3.9-0.3,6.1-0.2c0.1-1.4,1-1,1.7-2.1c1.6,0.5,3.3,1.8,5.2,1.8
						c1.4-0.6,0.5-1.2,1.1-2c0,1.3,2,1.3,0.9,2.1c2.3-0.1,3-0.1,6-1c-0.3-0.5-0.6-0.8-0.4-1.2c0.5-0.2,1.2,0.6,1.1,1.2l-0.1,0.1
						c3.4-1.7,7.4,4.1,10.2,1.6l-0.2,0.1l2.8-1.3c1.2,0.3-0.8,0.9,0.1,1.8c3-2,4.6,0.5,7.1-0.8c1.7,3.8,6.6,0,9.1,2.5l-0.1-0.9
						c0.7-0.8,0.8,0.5,1.2,0.8c0-0.7-0.7-0.8-0.3-1.3c5.6-0.9,11.4,1.6,17,2.5c2.1,0.3,1.3-4.6,3.8-2.4l-0.8,1.6
						c4.2-1.9,8.6,0.2,12.7-1.4c-0.2,0.4-0.3,0.9-0.7,0.9c0.9,1.2,3.2,0.1,3.2-0.9c0.6,0.1,0.1,0.9,0.5,1.4c0.9,0.7,2.2-1.5,2.6-0.3
						c0.1,0.2-0.2,0.4-0.4,0.5c0.6-0.6,2.6,0.2,2.1-1.2c1.5,0.7,2.9-0.6,4.2,0.2c0.8-1.5,2.6,0.7,2.9-1.4c-0.1,2.3,2.7,1.8,3.7,0.8
						c-0.3,0.7,0.8,0.7,0.5,1.7c1.1,0,2.1-0.5,1.9-1.6c2.1,2.7,4.1-2.2,5.3,1.3c3.3-1.2,6.3-2.1,9.3-2.6c-0.1,2.3-3.3,0.3-3.1,2.6
						c2.8-0.9,4.4-2.9,7.2-2.4c0.7,0.3-0.4,1-0.6,1.4c2.8-1,5.4,0.1,7.9-1.1c0,0.2-0.3,0.4-0.5,0.6c0.5-0.1,1.2,0.3,1.1-0.7
						l-0.5,0.3c-0.8-1.5,1.9-3.1,2-3.9c-0.8,3,2.5,0.7,1.2,4.4c0.3-0.2,0.7-0.7,0.6-1.4c0.5,0.2,0.6,0.6,0.2,1.4
						c1.8-0.6,1.1-1.7,2.7-1.7c0,0.5-0.3,0.7-0.5,1.3c0.8-1,1.6-2,2.9-1.6c-0.1,0.3,0.1,0.7-0.3,0.7c2.3-0.2,3.9-2.7,6.4-1.8
						c-0.7,2.2,0.9,0.7,1.1,2.5l1.4-0.6l-0.6-0.9c1.2,0,2.2-1.4,3.3-0.8l-0.9,0.8l2.2-0.4l-1.3-0.7c1.2-1-0.2-2.4,1.4-1.9
						c-0.3,0.2,1.2,0,1.9,1.1l0,0c0.6-0.6,1.2-1.3,2.1-0.8c0.2,0.6-0.1,2.1,0,2.5c0.5-1.6,2.8-0.5,3.5-2.2c-0.2,0.4-0.2,1.4-0.1,1.6
						l0.4-1.3c0.6,0.4,0.7,0.6,0.6,1.4c1.7,0.2-0.6-2.3,1.4-1.4c-0.2,0.1-0.1,0.3-0.4,0.5c2,0.5,3.8-0.9,5.7-0.4
						c0.6,1.9-1.6,0.5-0.9,2.1c2.6-0.4,5.4-2.4,7.9-2.1l-0.5-0.2c0.2-2.7,1.9,1.2,3.2-0.1c-0.3,0.2-0.4,1.5-0.3,1.2
						c1.8,0.3,3.5-0.8,6.1-1.8l-0.3,0.7c1.1,0.6,2.7,0.2,3.8,0.5c0.3-0.7,0.9-0.6,0.5-1.6c3.6,3.7,6.4-2.4,9.6,0.7
						c-0.4,0-0.8,0.6-0.5,0.6l2.6-0.8c-0.3-1.1-0.4-0.7-1-1.6c0.3-0.7,1-1.3,1.6-1.3c-1.1,0.8,0.1,1.9,0.6,2.5c-0.1-0.3,0-0.7,0-1.1
						c1.5,2,0.1-2.3,2-1.1l-0.1,0.6c0.7-0.3,1.3-1.2,2-1.1c0.4,1.3-0.7,0.7-0.7,1.8c1-0.1,1.9-2.6,2.9-1.4c-0.4,0.4-1.1,0.4-1.5,0.8
						c1.1,1.5,1.2,1.1,2,1.3l-0.1,0l1.8,0.6l-0.5-0.4c1.1-3.6,2.6-0.8,4.3-3.2c-1.6,2.3-0.2,1.3-0.3,2.8c0.5,0.4,1.2,0.8,1,1.3
						c0.8-1.3,1.4,0.9,2.5-1c0.1,0.5,0.9,0,0.8,1.2c1.1-0.4-0.3-0.8-0.3-1.4c1.6-1.8,4,1.8,6.3-0.7c2-1.1,2.3-2.7,4.2-3.7
						c0.7,0.7-0.4,1.8-0.4,1.8c1.1,0.7,1.9,0.5,2.8-0.2c-0.2,0.4,0.1,0.8,0.4,1.3c0.8-0.2,0.4-1.8,1.5-1.2c-0.1,0.6-0.3,1.4-0.7,2
						c0.9-0.5,1.8-1.5,2.7-2c0.3,0.8-0.5,1.3-0.8,1.9c1.1-0.5,2.8-1,3-2.3L381,135c0.4-0.1,0.3,1.1,0,1.4c-0.9,1.1-1.4-0.4-1.5-0.9
						l0.7-0.4c-0.9-2.8-2.7,0.6-4.1,0.6l0.4-2.1l-1.3,1.8c-0.3-0.5-0.6-1.7,0-2c-1.1-1-0.8,0.8-1.8-0.3c-0.1-0.2-0.1-0.3,0-0.4
						l-0.9,0.7c0.2-0.4-0.3-1.5,0.4-1.2c-1.8-1.1-2.7,1.7-3.5,0.2l0.1-0.1c-2.4,0.9-0.1,1.5-1.8,3.4l-1.4-3.7l-0.1,1.5
						c-0.3,0-0.8-0.1-0.7-0.7c-0.9,1.1,0.2,0.7-0.3,1.7c-1.3-1.3-3.3,0.9-3.7-1.6c-0.4,1.2,1.2,0.8,0,1.7c-0.5-2.6-1.4,0.5-2.6-0.6
						c0.3-1.4,1.3-0.7,0.2-1.9c-0.5,2.3-2.2-0.4-3,0.1c0.1,1.8-2,0.9-3.5,1.6c0.1-0.6-3-0.8-4.4-1.4l0-0.3c-0.2,1.8-1.7,1.6-2.7,2
						c0-1.1,0.2-1.5,0.7-2.1l-1,0.1c-0.2,0.6-0.5,0.9-1.2,1.2l0.2-1.4c-1.3,0.1-2.6,1.8-4.4,0.9c0,1.3,1.6,3.5-0.2,4.4
						c-0.1-0.7-0.2-1.9,0.2-2.2c-0.2,0.1-0.5,0.6-0.9,0.3l0.7-1.2c-0.8-0.5-0.4,1-1,0.9c0-1-0.5-0.7-0.5-1.5c0.2-0.1,0.6,0.4,0.8,0
						c-0.7-0.1-1.6-0.7-1.9-1.4c0.1,0.6,0.1,1.3-0.5,1.5c-1.3,0.1-0.5-1.2-1.3-1.6c-0.3,0.7-1.2,0-1.1,1.5c-0.4,0-0.5-0.7-0.7-1.1
						c-0.7,0.7-3.3,0.3-2.4,1.9l0.2,0.1c0,0-0.1,0-0.1,0.1c0,0,0,0,0,0l0,0c-2.2,1.6-4.8-0.6-7,0.1l0-0.5c-1.3,0.6-3,0.5-3.9,1.6
						c-0.4,0-1-0.9-0.8-1.5c-1,0.4-1.1,1-2.6,0.2c1-0.9-0.4-0.7,1-0.7c-1.4-0.4-1.7-1.2-3.1,0.2c0.4-1.3-1.1-1.6-1.7-1.2l1,0.9
						c-0.7,0.2-1.3,0.1-2,0l0.3-1.7c-2.8-1.9-4.9,3.6-7.1,0.3c-0.7,1.2,1.5,0.8,0.9,2.2c-1.3-0.2-2.7-2.5-3.1-2.5
						c-1.8-0.9-1.5,2.5-3.4,1.9c0.3,0.6,0.5,2.2-0.8,2.8c-1.3-0.2-1.6-2.4-0.8-2.9c0.3-0.1,0.5,0.1,0.4,0.3c0.4-0.2,0.9-0.5,0.4-1.1
						l-0.1,0.6c-0.6-0.6-2.4-0.5-2-1.5c-0.9,0.6-0.4,1,0.3,1.3c-1.7-0.8-2.5,0.1-4.2-0.5c0.3,0.3,0.5,1,0.3,1
						c-2.5-0.7-1.1,1.2-2.7,1.4c-1-0.9,0.3-2.2-1.4-1.4c-1-0.6-0.3-1.6,0.1-2.1c-1.5,1.2-2.9-0.7-3.7-0.9l0.8-0.5
						c-0.5,0.3-0.9,0.3-1.3,0.3l0.5,1.2c-0.5-0.2-0.9-0.2-0.9-0.7c-0.5,0.8,0.4,2-0.5,3.1c-0.6-0.6-1.9,0.7-2.2-0.9
						c2,0.5-0.3-1.6,1.4-1.9c-0.3,0.2-0.7,0.2-1.2,0c-0.1-0.2,0.1-0.3,0.2-0.4c-1.9-1.4-0.8,1.8-2.8,1.8c0.2-0.9-0.5-1.7-0.8-1.5
						c0.8,0,0.4,1.5-0.3,2.2c-1.3-0.7-1.4,0.5-2,0.5l0.8,0.3c-0.2,0.9-0.9,0.8-1.7,1.1c-0.1-0.7,0.8-0.5,0.5-0.8
						c-0.9,1.6-2.2-1.6-3.6-0.5c-0.6-0.6-0.1-1.7-0.6-2.1c-1.5,1.2-1.7-1.2-3.3-0.2c0.5,1.2,0.6,0.9-0.6,2.1l2.6-0.9l-1.7,1.8
						c0.8,0,1.7-0.8,2.1-0.6c-0.8,1-0.7,0.7-0.3,1.7c-1.1-1.8-2.1,1.1-3.4-0.1l0-3c-1.9-1.3-3.3,1.5-5.8,0.8l0.8,0.5
						c-0.3,1.2-1.5,0.2-2.3,0.7c0.1-1-0.4-1.3-0.8-2c0,0.7-1.8-0.1-2,1.9l-1.1-1.3c-2-0.5-2.2,2.8-4.2,2.5c0.6-1.1-0.3-1.8,1-2.5
						c-0.6,0-1.2-0.2-1.2,0.5c-0.4-0.6-1.8,1.3-2.3,0.4c-0.3,0.4-0.4,1.5-1.1,1.4c-0.1-0.2,0-0.5,0-0.5c0,0.5-1.1,0.7-0.5,1.8
						c-2-3.1-5.5,0.2-7.2-2.4c-1.4,0.3-3.1,0.6-4.3,0.7c0.1-0.3,0-0.5,0.2-0.4c-1.7-0.9-1.1,2.8-3.1,1.8c-1-1.6,1.1-0.9,0.4-1.5
						c-0.2-3.3-2.4,0.4-3.7-1.5l0.3-0.2c-1-1.1-2.5,1.2-4.2,1c0,0,0.1-0.3,0-0.5c-1.2,1.6-3.3,2.1-4.9,2.6c0.5-1.3,0.7-0.7,0.5-2
						c-0.7,0.2,0.2,2.1-1.3,2.4c-0.5-0.7-1.5-1.3-1.6-2.7l1.4-0.1c-0.7-1.8-1.7,0-2.5-0.3l0.1-0.8c-2.1,0.2-2.1,2.2-4.4,2l0.2,0.6
						c-1.3,1.9-1-1.1-2.2,0.3l-0.3-2c-0.8,0.5-2.9,1.8-4.3,2.2c0.9-1.4,2.6-2.1,3.6-3c-0.8,0-2.7,0.1-3.1,1c0.3-0.2,0.7-0.7,1-0.3
						c-1,1.5-2.3,2.3-3.9,2.2c0.4-3.8-4.1-1.1-5.2-4.1c-2.8,1.3-5.5-0.8-8.8-0.7c1,3-1,0-0.9,3.1c-0.8,0.2-1.1,0.1-1.1-0.1l-2.2-1.9
						c-0.5-0.9,0.7-0.6,0.7-1.3c-1.7-0.3-0.6-1.3-1.7-2.2c0.2,1.1-0.6,1.5-1.6,1.1l1.3,1.5c-2.4,1.5-1.9-2.7-4.3-1.2l0.8-0.9
						c-1.2,0.5-4.4-0.2-5.7,2.2c-0.2-0.4-0.4-1.2,0.1-1.4c-2.8-0.5-6.5,2.3-8.7,0.7l0.3-0.7c-0.5,0.2-1,1.4-1.6,0.6
						c0.1-0.3,0.3-0.7,0-0.8c-0.3,0.2-1.5,1.2-2.2,0.8l0.7-0.8c-2.7-1.1-4.4,1.8-6.8,2.2c0.1-2.2-2-3-3.1-3.5l0.1-0.3
						c-3.2-0.5-5.7,1.5-8.7,2.1c-1.7-2.5-6.3-1.4-9.2-2.9c0.4,0.4-0.2,1.7-0.7,1.9c-0.7-0.5-2.1,1.4-1.8-0.6l0.3,0.1
						c-0.4-2-1.9-1.6-3-1.7l-0.4,2.6c-2.7-4-7.9,0.9-9.3-2.6c-0.8,0.6-1.7,0.6-2.4,1.2l0.1-1.4c-2-0.5-3-0.7-5.4-0.5l0.6-1
						c-1.4-0.2-2,4-3.3,4l-0.3-2.1c-2.4-0.1-4.8-2.1-7.3-0.3c0.1-0.3,0.2-0.9,0.6-1c-1.1-0.1-4.4-1.6-4.1,1.3
						c0.1-1.9-2.5-0.3-3.8,0.5l0.3-1.4c-1.2,1.7-1.2,2.2-2.8,2.6c-0.4-0.2-0.3-1.1,0.2-0.8c-1.2-0.8-1,1.3-2.5,0.5l0.6-0.9
						c-1.3-0.2-1.2,0.3-1.9,1.3c-0.8,0.5-2.4-0.4-2.5-1.7c-0.2,0.8-0.9,1.8-1.7,1.4c-0.1-0.5,0.2-0.8,0.3-0.9
						c-2.1-1-3.2,1.5-4.6,0.1c0-0.5-0.1-0.7-0.2-0.8c1.7,0.1,3,0.2,2.9,0.3c0-1.3-1.3-1.6-0.2-3.3c-1.1,0.9-3,3-4.3,2.4
						c-0.1-0.1-0.1-0.2-0.2-0.4l0.1-0.1c-0.3-0.1-0.6,0-0.8,0.2c-0.4-0.2-0.7-0.4-1.1-0.4c-0.1-1.1-1.5-0.6-2.2-0.7
						c0,1.4-0.9,1.2-0.1,2.3c-0.1-0.1,0.1-0.2,0.6-0.2c0.1,0,0.2-0.1,0.3-0.1c0,0,0,0.1,0,0.1c0.4,0,1,0,1.7,0
						c-0.6,0.7-1.1,1.3-1.8,0.5c-0.4,0.9-0.8,1.8-1,2.2c-0.9-2-2.6-3.1-2.9-4.3c-2.1,0.8-4.9,0.5-6.2,3.1c-0.6,0.3-0.7-0.8-0.9-1.2
						c0.3-0.3,0.7-0.2,0.9-0.6c-1.2,0.7-3.5,0.2-3.8,2.1c-1.5-0.8,0.8-1.7-1.2-1.4l0.3-0.6c-4-2.9-6.4,4.7-10.9,1
						c0.3,0.2,0.5,0.3,0.5,0.6c-2.5-0.8-5.1-0.4-7.7,0c-2.6,0.4-5.1,0.6-7.7-0.6c-1.4-0.5-1.5,0.7-2.3,1.7l-0.4-1.5l-1.4,1.8
						c-2,1.4-3.9-3.5-6.3-0.9l0.4,1c-1-0.1-3,0.8-2.9-0.3c-0.1,0.2-0.2,1.1-0.6,0.6l-0.1-0.8l-2.2,1.6c-1.9-0.4,0-3.1-2.7-3.1
						c-1,0.4-2.6,2.5-2.2,3c0.4,0,1.1,0.4,1.2,1.2l-0.9,0.5c0.1,2.3-0.4,4.8,1.9,6.2l1.4-1.5l0.6,1.1l-1.3,0.2c0.8,1,1.2,0,1.6-0.7
						c0.2,0.6,0.4,1,0.7,1.2l1.3-2.3c0.3,0.9-0.5,1.9,0.5,2.3c0.6-1.1-0.8-2,0.3-2.8c0.8,1,0.7,1.9,1.4,0.9c0.2,0.6,0,1-0.3,1.3
						c0.7-0.8,2-0.5,2.3-1.7c0.8,1.3,2.5-0.5,2.6,1.7c0.2-0.5,1.2-1.8,1.9-1.9c-1.1,2.7,2.6,0,2.4,2.8c0.8-2.4,3.3-1.3,4.9-2.6
						c-0.1,0.2-0.2,0.6-0.4,0.5c0.9,0.2,1.2,0.9,1.9,1.3c0-2,1.5-2.5,2.2-3.7c1.2,1.8-0.6,2.3-0.2,4.1c-0.1-1.6,1.9-1.7,1.5-3
						c0.9,1.1,0.8,0.5,1.3,2.1c0.1-2.5,0.8-0.5,1.5-2c1.3,1.2,0.4,2.3,1.8,1.5C47.7,138.7,46.5,139.6,46.5,139.6z M79.7,135.4
						C79.7,135.4,79.7,135.4,79.7,135.4c-0.3,0.1-0.5,0.1-0.7,0.1C79.1,135.5,79.3,135.5,79.7,135.4z M82.5,135.5
						c-0.3-0.1-0.8-0.1-1.2-0.1c-0.1-0.5,0-1,0.3-1C81.4,134.8,82.1,135.1,82.5,135.5z M76.8,125.6c0.5-0.2,0.6,0.1,0.7,0.4
						c-0.2,0-0.5,0.1-0.8,0.1c0,0,0,0.1-0.1,0.2C76.7,126,76.7,125.8,76.8,125.6z"/>
					<path class="st1" d="M76,127.4c-0.1,0-0.1,0.1-0.2,0.1c0.1,0.1,0.2,0.2,0.3,0.3c0.1-0.1,0.1-0.3,0.2-0.4
						C76.1,127.4,76,127.4,76,127.4z"/>
					<path class="st1" d="M330.9,134.5L330.9,134.5c0,0,0,0.1,0.1,0.2C331,134.6,331,134.6,330.9,134.5z"/>
					<polygon class="st1" points="121.1,140.1 121.1,139.7 120.8,140 					"/>
					<path class="st1" d="M346.7,138.5c0,0.1,0.1,0.2,0.2,0.3C346.9,138.8,346.8,138.7,346.7,138.5z"/>
					<path class="st1" d="M353.4,138.5l1,0.4C353.9,138.7,353.6,138.6,353.4,138.5z"/>
					<path class="st1" d="M358.6,138.9c0.1-0.2,0.1-0.4,0.1-0.6c0,0,0,0,0,0L358.6,138.9z"/>
					<path class="st1" d="M276.6,143.8c-0.1,0-0.1,0-0.2,0.1C275.9,144.1,276.2,144,276.6,143.8z"/>
					<path class="st1" d="M300.9,139.9c-0.3,0.3-0.5,0.5-0.8,0.7C300.6,140.7,300.9,140.7,300.9,139.9z"/>
					<path class="st1" d="M249.3,145.7C249.3,145.7,249.3,145.7,249.3,145.7c-0.1,0-0.1,0-0.2,0L249.3,145.7z"/>
					<path class="st1" d="M299,140.6c0.4,0.3,0.8,0.2,1.1,0C299.8,140.5,299.4,140.3,299,140.6z"/>
					<path class="st1" d="M380.9,138.1l0.3,0c0-0.1,0-0.2,0-0.2L380.9,138.1z"/>
					<path class="st1" d="M381.2,137.9l0.3-0.2C381.3,137.8,381.2,137.8,381.2,137.9z"/>
					<path class="st1" d="M382,137.4l-0.6,0.4C381.7,137.7,381.9,137.8,382,137.4z"/>
					<path class="st1" d="M374.1,137.9l0,0.5C374.1,138.3,374.1,138.2,374.1,137.9z"/>
					<path class="st1" d="M372,138.2c0.5,0.1,1.3,1,2,0.6l0-0.4C373.8,139.2,372.4,137.3,372,138.2z"/>
					<path class="st1" d="M363,132.5l1.8,0.3c-0.3-0.5-0.8-1.2,0-1.4C362.5,129.9,365.3,132.5,363,132.5z"/>
					<path class="st1" d="M357.6,132c0.9-0.3-0.1-0.8,0-1.1C357,131.4,356.8,131.6,357.6,132z"/>
					<path class="st1" d="M318.7,133.9l0-1.3C318.1,132.8,318.8,133.1,318.7,133.9z"/>
					<polygon class="st1" points="311.6,140.8 312.3,141.6 312.6,140.4 					"/>
					<polygon class="st1" points="306.9,131.9 307.2,131.7 306,132.2 					"/>
					<path class="st1" d="M241.7,133.4l0.2,1.6C242.4,134.7,242.5,132.9,241.7,133.4z"/>
					<path class="st1" d="M213.5,134.6c-0.3-0.8-1.1-1.3-1.6-0.6C212.6,134.2,213.2,134.8,213.5,134.6z"/>
					<polygon class="st1" points="129.3,128 129.9,127.5 128.8,127.8 					"/>
				</g>
			</g>
		</g>
	</g>
</g>
<g class="st0">
	<g>
		<g>
			<g>
				<g>
					<path class="st1" d="M239.8,380.3c0.4,0.2,1.4,0.2,1.3-0.3l-1.6-0.5L239.8,380.3z"/>
					<path class="st1" d="M243.2,377.1c-0.7-0.7-2.1-1.5-3.6-1.3c1.5,0.8,0.9,0.8,2.7,1.7c0.1,0.5-0.6,0.9-1.2,0.7
						c0.4,0.2-0.4,0.8,0.6,1.2c1.3-0.6,1.5-1.4,0.5-2.4C242.5,376.8,242.9,377,243.2,377.1z"/>
					<path class="st1" d="M247.1,324.9l-0.2,0.3C247,325.2,247.1,325.1,247.1,324.9z"/>
					<path class="st1" d="M247.5,292.9c0,0.2,0.2,0.4,0.3,0.4C247.7,293,247.6,292.8,247.5,292.9z"/>
					<path class="st1" d="M249.6,287.6c-0.1,0.1-0.1,0.2-0.1,0.3C249.6,287.8,249.7,287.7,249.6,287.6z"/>
					<path class="st1" d="M247.1,324.9l0.5-0.9C247,324,247.2,324.5,247.1,324.9z"/>
					<path class="st1" d="M239.8,369.6c0.1,0.2,0.2,0.3,0.4,0.5c-0.1-0.2-0.1-0.3-0.1-0.4C240,369.7,239.9,369.6,239.8,369.6z"/>
					<path class="st1" d="M248.8,339.2l0,0.3c0.2,0.1,0.4,0.1,0.7,0.2L248.8,339.2z"/>
					<path class="st1" d="M249,350.3c0.1-0.2-1.3-0.4-1.9-0.5c0.6,0.2,0.8,0.3,1,0.6C248.2,350.4,248.6,350.4,249,350.3z"/>
					<path class="st1" d="M245.7,367.6l0.2,0.3C245.8,367.8,245.8,367.7,245.7,367.6z"/>
					<path class="st1" d="M248.9,331.3c0.2,0,0.4-0.1,0.5-0.1C249.3,331.2,249.1,331.3,248.9,331.3z"/>
					<path class="st1" d="M247,26.5c0.1,0,0.2,0,0.2,0C247.1,26.4,247,26.4,247,26.5z"/>
					<path class="st1" d="M253.4,13.6l0.1,0.2c0.3,0,0.5,0,0.8,0L253.4,13.6z"/>
					<path class="st1" d="M252.3,277.9C252.2,277.9,252.2,277.9,252.3,277.9C252.4,278.2,252.3,278.1,252.3,277.9z"/>
					<path class="st1" d="M256,184.7c-1.2,1.1-1.7-1.7-3-0.1C253.5,184.5,255.2,186,256,184.7z"/>
					<path class="st1" d="M240,369.4c0-0.1,0-0.3,0-0.4C240,369.1,240,369.2,240,369.4z"/>
					<path class="st1" d="M253,184.6L253,184.6l-0.1,0.2C252.9,184.7,252.9,184.7,253,184.6z"/>
					<path class="st1" d="M254.2,254.8c-0.3,0-0.4,0.1-0.6,0.2C253.7,255,253.9,255,254.2,254.8z"/>
					<path class="st1" d="M250.1,271.7l0.2-0.4C250.2,271.5,250.1,271.6,250.1,271.7z"/>
					<path class="st1" d="M253.3,245.6c0.1-0.2,0.3-0.3,0.2-0.6c-0.1,0-0.1,0-0.2,0.1C253.5,245.2,253.6,245.4,253.3,245.6z"/>
					<path class="st1" d="M254.3,236.2c-0.1,0-0.2,0.1-0.3,0.2c0,0.1,0,0.2,0.1,0.3L254.3,236.2z"/>
					<path class="st1" d="M248.3,54.7c0.4-0.2,0.8-0.3,1.3-0.4C248.6,54.5,248.2,53.1,248.3,54.7z"/>
					<path class="st1" d="M240.6,369.7c-0.3-0.1-0.5-0.2-0.6-0.3c0,0.1,0,0.2,0.1,0.3C240.3,369.7,240.5,369.7,240.6,369.7z"/>
					<path class="st1" d="M242.4,244l0.4-1.4C242.6,242.9,242.4,243.5,242.4,244z"/>
					<path class="st1" d="M247.1,121.6l-0.2-0.3C246.9,121.3,247,121.5,247.1,121.6z"/>
					<path class="st1" d="M243,238.2c0.5-0.2,0.8-0.5,1-0.7c-0.1-0.1-0.2-0.1-0.3-0.2L243,238.2z"/>
					<path class="st1" d="M249.6,54.3C249.6,54.3,249.6,54.3,249.6,54.3C249.6,54.3,249.6,54.3,249.6,54.3z"/>
					<path class="st1" d="M246.1,44.6c0,1.4,1.8,0.6,2.9,0.9c0.6,1.7-1.3,0.8-2.3,1.4c0.5,1,2.2,1.8,2.2,2.6c-0.3,0.1-0.4,0.2-0.8,0
						c1.5,1.1,0.1,3.3,2,4.6c-0.2,0.1-0.3,0.1-0.5,0.2c0.9-0.2,1.9-0.3,2.5-0.2c0,0.6,1.2,1.2,0,1.4c0-0.4-0.5-0.4-0.8-0.6l0.5,0.7
						c-1.7,0.6-0.6-0.9-1.9-0.9c0.6,1.3,2,2.8,1.5,3.8c-1.7,0.2-0.6-2.3-2.1-1l0.6-1.5c-2.7,1.2,0.2-0.9-2.7,0.2
						c-0.5,2,0.9,2.2,0.4,4.3c0.9,0.4,1.4-0.2,2.3,0.3c1.7,2.9-4.3,2.3-2,4.4c1.1,0.5,3.3,0.8,2.1,2.3l-1.9-0.5
						c-0.2,1.9,2.8,1.1,1.5,3.2c-0.8-0.4-0.6-1.5-0.9-1.2c-1.5,1.3,1.1,0.9,1.1,2l-1.7,0.2c0.3,2.1,1.5,4.4,1.8,6.7
						c-0.5-0.1-1-0.5-1.6,0c0.8,2.9-0.3,6.2-1.4,9l1.4,1.1c0,0.2-0.7,0.4-1,0.2c-0.6,1.1,0.9,0.1,1.5,0.6c0.1,0.6-0.9,0.8-1.3,0.4
						c1.2,1.9,2.6,5.6,0.9,7.5l-0.4-0.4c-0.6,1.6,3,1.9,1.5,3.3l-0.3-0.3c-0.7,3.4,0.5,7.3-1.9,9.8c2.1,0.6-1.1,3.4,1.9,3.7
						c-1.5,1.9-2,1.3-3.2,4c-0.2,0.7,1.8,1.2,2.1,2.1l-1.5-0.1l1.6,1.3l-1.9,0.6l0.4,0.9c0.1-0.3,0.7-0.7,1.2-0.6
						c0.6,1.4-1.2,3.2-2,3.2l1.1,3.2c-0.6-0.1-0.8-0.6-1.2-1.1c1.5,1.8-1.6,0.2-0.3,1.8c0.4-0.2,0.9,0.2,1.2,0.2
						c-1,0.7-1.1,2.5-0.8,3.8l-1-0.3c-0.4,2.3,0.2,5,0,7.6c0.6-0.9,2.4-0.6,2.5,0.2l-1.6,0.2c1,0.6,0.7-0.8,1.8,0.3
						c-0.3,1-1.9,0.5-2.4-0.1l0.5,1.2c-0.5,0-0.7-0.3-1.3-0.4c1,0.6-1.8,2-0.1,2.8l-0.5,0c-0.2,2.6,0.3,3.9,0.2,6
						c1.4,0.1,1,1,2.1,1.7c-0.5,1.6-1.8,3.3-1.7,5.2c0.6,1.4,1.2,0.5,2,1.1c-1.3,0-1.3,2-2.1,0.9c0.1,2.3,0.1,3,1,5.9
						c0.5-0.3,0.8-0.6,1.2-0.4c0.2,0.5-0.6,1.2-1.2,1.1l-0.1-0.1c1.8,3.3-4,7.5-1.3,10.2l-0.1-0.1l1.4,2.7c-0.2,1.3-1-0.8-1.8,0.2
						c2.1,2.9-0.3,4.7,1.2,7.1c-3.7,2,0.5,6.6-1.8,9.2l0.9-0.2c0.9,0.6-0.5,0.8-0.7,1.3c0.7-0.1,0.8-0.7,1.3-0.3
						c1.3,5.4-0.8,11.3-1.5,16.7c-0.2,2,4.6,1.1,2.5,3.6l-1.7-0.7c2,4-0.1,8.1,1.4,12.1c-0.4-0.3-0.9-0.3-0.8-0.7
						c-1.2,0.8-0.2,3,0.8,3.1c-0.1,0.6-0.9,0.1-1.4,0.4c-0.8,0.8,1.4,2.2,0.2,2.5c-0.2,0.1-0.4-0.3-0.5-0.4c0.6,0.6-0.4,2.5,1.1,2.1
						c-0.8,1.4,0.4,2.9-0.5,4c1.5,0.9-1,2.5,1.2,2.9c-2.2-0.3-2.1,2.4-1.1,3.5c-0.6-0.4-0.8,0.7-1.7,0.3c-0.1,1.1,0.2,2.1,1.4,2
						c-2.9,1.7,1.7,4.2-1.9,4.9c0.8,3.3,1.2,6.4,1.4,9.4c-2.2-0.4,0.2-3.2-2.2-3.4c0.6,2.9,2.3,4.7,1.4,7.4
						c-0.4,0.7-0.9-0.5-1.3-0.8c0.6,2.9-0.9,5.3,0.1,7.9c-0.2,0-0.4-0.3-0.5-0.6c0,0.5-0.5,1.1,0.6,1.2l-0.2-0.5
						c1.6-0.6,2.9,2.3,3.6,2.5c-2.8-1.2-1,2.4-4.5,0.6c0.2,0.3,0.6,0.8,1.3,0.8c-0.2,0.5-0.7,0.6-1.4,0c0.4,1.8,1.5,1.3,1.3,2.9
						c-0.5-0.1-0.7-0.4-1.2-0.6c0.9,0.9,1.8,1.8,1.2,3.1c-0.3-0.1-0.7,0-0.6-0.4c-0.1,2.3,2.2,4.1,1.1,6.6c-2.1-0.9-0.8,0.8-2.6,0.8
						l0.5,1.4l0.9-0.5c-0.1,1.2,1.2,2.3,0.5,3.3l-0.7-0.9c0.1,0.8,0.2,1.5,0.3,2.3l0.8-1.2c0.9,1.3,2.4,0,1.8,1.5
						c-0.2-0.3-0.1,1.2-1.2,1.8l0,0c0.6,0.6,1.2,1.2,0.7,2.1c-0.6,0.2-2.1-0.2-2.5-0.1c1.5,0.6,0.4,2.8,2.1,3.6
						c-0.4-0.2-1.4-0.3-1.6-0.2l1.3,0.5c-0.4,0.6-0.6,0.6-1.4,0.5c-0.2,1.7,2.4-0.5,1.4,1.4c-0.1-0.2-0.3-0.1-0.5-0.4
						c-0.5,2,0.9,3.8,0.3,5.6c-1.9,0.6-0.5-1.6-2.1-0.9c0.4,2.6,2.4,5.4,2.1,7.9l0.2-0.5c2.7,0.2-1.2,1.9,0.1,3.1
						c-0.2-0.3-1.5-0.3-1.2-0.3c-0.4,1.7,0.8,3.5,1.7,6.1l-0.7-0.3c-0.6,1-0.2,2.7-0.5,3.8c0.7,0.3,0.6,0.9,1.6,0.5
						c-3.8,3.5,2.3,6.4-0.9,9.4c0-0.4-0.6-0.8-0.6-0.6l0.7,2.5c1.2-0.2,0.7-0.3,1.6-0.9c0.7,0.3,1.2,1,1.2,1.7
						c-0.8-1.1-1.9,0-2.5,0.5c0.4-0.1,0.7,0.1,1.1,0c-2,1.3,2.3,0.2,0.9,2l-0.6-0.1c0.3,0.7,1.1,1.3,0.9,2c-1.3,0.3-0.6-0.7-1.7-0.8
						c0.1,1,2.5,2.1,1.2,3c-0.4-0.4-0.4-1.1-0.7-1.5c-1.6,1-1.2,1.1-1.4,1.9l0-0.1l-0.7,1.7l0.4-0.4c3.5,1.4,0.6,2.6,2.8,4.4
						c-2.1-1.7-1.2-0.3-2.8-0.5c-0.4,0.4-0.9,1.1-1.3,0.9c1.2,0.9-1,1.3,0.7,2.5c-0.5,0-0.1,0.9-1.3,0.6c0.3,1.1,0.9-0.2,1.5-0.1
						c1.6,1.7-2.2,3.7,0,6.2c0.8,2.1,2.4,2.6,3.1,4.5c-0.8,0.6-1.7-0.6-1.7-0.6c-0.8,1-0.7,1.8-0.2,2.8c-0.4-0.2-0.8-0.1-1.4,0.2
						c0.1,0.8,1.7,0.7,0.9,1.6c-0.5-0.2-1.4-0.5-1.9-0.9c0.4,0.9,1.2,1.9,1.6,2.9c-0.9,0.2-1.2-0.7-1.8-1.1c0.3,1.1,0.5,2.8,1.8,3.3
						l0.5-0.6c0,0.4-1.2,0.1-1.4-0.2c-1-1,0.6-1.3,1.1-1.3l0.3,0.7c2.9-0.4-0.2-2.8,0-4.1l2,0.7l-1.6-1.5c0.6-0.3,1.7-0.4,2,0.3
						c1.1-0.9-0.7-0.9,0.5-1.7c0.2-0.1,0.3,0,0.4,0.1l-0.6-1c0.4,0.2,1.5-0.1,1.1,0.5c1.3-1.6-1.4-2.9,0.2-3.4l0.1,0.2
						c-0.6-2.4-1.5-0.3-3.2-2.2l3.8-1l-1.5-0.3c0.1-0.2,0.2-0.7,0.8-0.6c-1-1-0.7,0.1-1.6-0.5c1.4-1.1-0.5-3.3,1.9-3.5
						c-1.1-0.5-0.9,1.1-1.7-0.2c2.6-0.3-0.4-1.5,0.8-2.5c1.3,0.4,0.6,1.4,1.8,0.3c-2.3-0.7,0.6-2.1,0.1-3c-1.8-0.1-0.7-2-1.3-3.6
						c0.6,0.1,1-2.9,1.7-4.3l0.3,0c-1.8-0.3-1.5-1.8-1.9-2.8c1.1,0,1.5,0.2,2,0.8l0-1c-0.6-0.2-0.9-0.5-1.1-1.2l1.4,0.2
						c-0.1-1.4-1.6-2.7-0.8-4.4c-1.3-0.1-3.5,1.4-4.4-0.4c0.7-0.1,1.9-0.2,2.2,0.3c-0.1-0.2-0.6-0.5-0.3-0.9l1.2,0.7
						c0.5-0.8-1-0.4-0.9-1c1,0,0.7-0.5,1.5-0.4c0.1,0.2-0.4,0.6,0,0.8c0.2-0.7,0.7-1.6,1.5-1.9c-0.6,0.1-1.3,0-1.5-0.5
						c-0.1-1.3,1.2-0.5,1.7-1.3c-0.7-0.3,0-1.2-1.5-1.2c0-0.4,0.7-0.5,1.1-0.7c-0.7-0.7-0.3-3.2-1.8-2.4l-0.1,0.2c0,0,0-0.1-0.1-0.1
						c0,0,0,0,0,0l0,0c-1.6-2.2,0.6-4.8-0.1-7l0.5,0c-0.6-1.3-0.5-3-1.6-3.9c0-0.4,0.9-1,1.5-0.8c-0.4-1-1-1.1-0.2-2.6
						c0.9,1,0.8-0.4,0.7,1c0.4-1.3,1.2-1.7-0.2-3c1.3,0.4,1.6-1,1.2-1.7l-0.9,0.9c-0.2-0.7-0.1-1.3,0-2l1.7,0.3
						c2-2.7-3.5-4.8-0.1-6.9c-1.2-0.7-0.8,1.4-2.2,0.8c0.2-1.2,2.6-2.5,2.7-2.9c0.9-1.6-2.4-1.6-1.7-3.4c-0.6,0.2-2.2,0.4-2.7-1
						c0.3-1.2,2.5-1.4,3-0.6c0,0.3-0.2,0.4-0.4,0.4c0.2,0.4,0.4,0.9,1.1,0.5l-0.6-0.2c0.6-0.6,0.6-2.3,1.6-1.8
						c-0.5-1-0.9-0.4-1.3,0.2c1-1.5,0.2-2.5,0.8-4c-0.3,0.2-1.1,0.4-1,0.2c0.9-2.3-1-1.1-1.2-2.8c1-0.9,2.1,0.5,1.5-1.2
						c0.7-0.9,1.6-0.1,2,0.4c-1-1.6,1-2.7,1.3-3.5l0.4,0.8c-0.2-0.5-0.2-0.9-0.2-1.3l-1.2,0.3c0.2-0.4,0.3-0.8,0.8-0.8
						c-0.7-0.5-2,0.2-3-0.9c0.7-0.6-0.4-1.9,1.1-2c-0.7,1.9,1.6,0,1.7,1.6c-0.2-0.3-0.1-0.7,0.2-1.2c0.2-0.1,0.3,0.1,0.4,0.2
						c1.6-1.7-1.7-1-1.4-2.9c0.9,0.3,1.7-0.3,1.6-0.6c-0.1,0.8-1.5,0.2-2.1-0.6c0.8-1.1-0.4-1.4-0.2-2l-0.4,0.7
						c-0.9-0.4-0.7-1-0.8-1.8c0.7,0,0.4,0.8,0.7,0.6c-1.4-1.1,1.9-2,1-3.4c0.7-0.5,1.7,0.1,2.1-0.3c-1-1.6,1.4-1.5,0.7-3.1
						c-1.2,0.3-1,0.4-2-0.8l0.5,2.7l-1.5-1.9c-0.1,0.8,0.5,1.7,0.3,2.2c-0.9-0.9-0.6-0.8-1.6-0.5c1.9-0.8-0.8-2.2,0.6-3.3l2.9,0.4
						c1.5-1.7-1.1-3.5,0-5.8l-0.6,0.7c-1.1-0.5,0-1.5-0.3-2.4c1,0.2,1.4-0.2,2-0.5c-0.7-0.1,0.3-1.8-1.6-2.2l1.4-0.9
						c0.8-1.9-2.5-2.6-2-4.4c1,0.7,1.8-0.1,2.4,1.3c0.1-0.6,0.3-1.2-0.3-1.3c0.7-0.3-1.1-1.9-0.1-2.4c-0.4-0.3-1.4-0.5-1.3-1.2
						c0.2-0.1,0.5,0.1,0.5,0.1c-0.5-0.1-0.5-1.2-1.7-0.7c3.3-1.6,0.3-5.4,3.1-6.9c-0.2-1.4-0.4-3.1-0.4-4.4c0.3,0.1,0.5,0,0.4,0.3
						c1-1.7-2.8-1.3-1.6-3.2c1.7-0.9,0.8,1.1,1.4,0.5c3.3-0.1-0.3-2.4,1.6-3.7l0.2,0.3c1.1-1-1.1-2.6-0.8-4.2c0,0,0.3,0.1,0.5,0
						c-1.6-1.2-2.1-3.3-2.6-4.9c1.3,0.5,0.7,0.7,2,0.4c-0.2-0.7-2.1,0.2-2.4-1.2c0.7-0.5,1.3-1.5,2.7-1.6l0.1,1.4
						c1.8-0.7-0.1-1.8,0.2-2.5l0.8,0.1c-0.3-2.1-2.3-2.1-2.2-4.3l-0.6,0.2c-2-1.2,1.1-1-0.4-2.2l2-0.4c-0.5-0.8-2-2.7-2.4-4.1
						c1.5,0.8,2.3,2.4,3.2,3.4c0-0.8-0.2-2.7-1.2-3.1c0.2,0.3,0.7,0.7,0.4,1c-1.6-0.9-2.4-2.2-2.4-3.7c3.8,0.1,0.8-4.1,3.7-5.4
						c-1.5-2.7,0.4-5.5,0.1-8.7c-2.9,1.2-0.1-0.9-3.2-0.7c-0.2-0.7-0.2-1,0-1.1l1.8-2.3c0.9-0.5,0.7,0.7,1.4,0.6
						c0.2-1.6,1.3-0.7,2.1-1.8c-1.1,0.2-1.6-0.5-1.2-1.5l-1.4,1.3c-1.7-2.2,2.5-2,0.9-4.2l1,0.7c-0.6-1.2,0-4.3-2.4-5.5
						c0.4-0.2,1.2-0.5,1.4,0.1c0.4-2.8-2.4-6.3-0.8-8.4l0.7,0.2c-0.2-0.5-1.4-1-0.6-1.6c0.3,0,0.7,0.2,0.8,0
						c-0.2-0.3-1.2-1.5-0.8-2.1l0.8,0.6c1.1-2.7-1.8-4.3-2.2-6.7c2.2,0.1,3-2,3.5-3.1l0.3,0.1c0.5-3.2-1.5-5.6-2.1-8.6
						c2.5-1.7,1.4-6.2,2.9-9.1c-0.4,0.4-1.7-0.2-1.9-0.7c0.5-0.7-1.4-2,0.6-1.8l-0.1,0.2c2-0.4,1.6-1.9,1.7-3l-2.6-0.3
						c4-2.7-1-7.8,2.5-9.2c-0.6-0.7-0.6-1.6-1.2-2.4l1.4,0.1c0.4-2,0.7-2.9,0.4-5.4l1,0.5c0.1-1.4-4-1.9-4-3.2l2.1-0.3
						c0.1-2.4,2-4.8,0.2-7.2c0.3,0,0.9,0.1,1,0.5c0.1-1.1,1.6-4.3-1.3-4c1.9,0,0.3-2.5-0.5-3.8l1.4,0.2c-1.8-1.1-2.2-1.2-2.7-2.7
						c0.2-0.4,1.1-0.3,0.8,0.2c0.8-1.2-1.3-1-0.5-2.4l0.9,0.6c0.1-1.2-0.3-1.2-1.4-1.9c-0.5-0.8,0.4-2.3,1.7-2.5
						c-0.8-0.2-1.8-0.9-1.4-1.6c0.5-0.1,0.8,0.2,0.9,0.3c1-2.1-1.6-3.1-0.2-4.5c0.5,0,0.7-0.1,0.8-0.2c0,1.7-0.1,3-0.2,2.9
						c1.3,0,1.5-1.3,3.3-0.2c-0.9-1.1-3-2.9-2.4-4.2c0.1-0.1,0.2-0.1,0.4-0.2l0.1,0.1c0.1-0.3,0-0.6-0.2-0.8
						c0.2-0.4,0.4-0.7,0.4-1.1c1.1-0.1,0.6-1.5,0.6-2.2c-1.4,0-1.2-0.8-2.3,0c0.1-0.1,0.2,0.1,0.2,0.6c0,0.1,0.1,0.2,0.1,0.3
						c0,0-0.1,0-0.1,0c0,0.4,0.1,1,0.1,1.7c-0.7-0.5-1.3-1.1-0.5-1.8c-0.9-0.3-1.8-0.7-2.3-0.9c2-0.9,3-2.6,4.2-2.9
						c-0.8-2-0.5-4.8-3.1-6.1c-0.3-0.6,0.8-0.7,1.2-0.9c0.3,0.3,0.2,0.7,0.6,0.9c-0.7-1.2-0.3-3.4-2.1-3.7c0.8-1.5,1.7,0.8,1.4-1.2
						l0.6,0.3c2.9-4-4.8-6.3-1-10.7c-0.2,0.3-0.3,0.5-0.6,0.5c1.6-5-1.8-10.2,0.8-15.1c0.5-1.4-0.7-1.5-1.6-2.3l1.5-0.3l-1.8-1.4
						c-1.3-2,3.6-3.7,1.1-6.2l-1,0.4c0.2-0.9-0.7-2.9,0.5-2.8c-0.2-0.1-1.1-0.3-0.6-0.7l0.8-0.1l-1.5-2.2c0.5-1.8,3.1,0.1,3.2-2.5
						c-0.3-1-2.4-2.6-2.9-2.3c0,0.4-0.4,1-1.2,1.1l-0.4-0.9c-2.3-0.1-4.7-0.6-6.3,1.6l1.5,1.4l-1.1,0.5l-0.1-1.3
						c-1,0.8-0.1,1.2,0.6,1.7c-0.6,0.1-1,0.4-1.2,0.7l2.3,1.4c-0.9,0.2-1.8-0.6-2.3,0.4c1.1,0.6,2-0.7,2.7,0.4c-1,0.8-1.9,0.6-1,1.4
						c-0.6,0.1-1,0-1.3-0.3c0.7,0.7,0.4,2,1.6,2.3c-1.3,0.8,0.4,2.5-1.8,2.5c0.5,0.2,1.8,1.3,1.9,1.9c-2.7-1.2-0.1,2.6-2.9,2.3
						c2.4,0.9,1.2,3.3,2.5,4.9c-0.2-0.1-0.6-0.3-0.5-0.4c-0.2,0.9-0.9,1.2-1.3,1.8c2,0.1,2.4,1.5,3.7,2.3c-1.9,1.2-2.3-0.6-4.1-0.2
						c1.6-0.1,1.6,1.9,2.9,1.5c-1.1,0.9-0.5,0.8-2.2,1.2c2.5,0.1,0.4,0.8,2,1.5c-1.2,1.3-2.3,0.4-1.5,1.7
						C247,45.8,246.1,44.6,246.1,44.6z M250.5,77.5C250.4,77.5,250.4,77.5,250.5,77.5c-0.1-0.3-0.1-0.5-0.1-0.7
						C250.4,77,250.4,77.2,250.5,77.5z M250.5,80.3c0.1-0.3,0.1-0.8,0.1-1.2c0.5-0.1,1,0,1,0.3C251.2,79.2,250.9,79.9,250.5,80.3z
						 M260.3,74.5c0.2,0.4-0.1,0.6-0.4,0.6c0-0.2-0.1-0.5-0.2-0.8c0,0-0.1,0-0.2-0.1C259.8,74.4,260.1,74.4,260.3,74.5z"/>
					<path class="st1" d="M258.4,73.7c0-0.1-0.1-0.1-0.1-0.2c-0.1,0.1-0.2,0.2-0.3,0.3c0.2,0.1,0.3,0.1,0.4,0.2
						C258.4,73.9,258.4,73.8,258.4,73.7z"/>
					<path class="st1" d="M246.9,325.3L246.9,325.3c0,0-0.1,0-0.2,0.1C246.8,325.4,246.8,325.4,246.9,325.3z"/>
					<polygon class="st1" points="246.6,118.4 246.9,118.5 246.6,118.2 					"/>
					<path class="st1" d="M242.4,340.8c-0.1,0-0.3,0.1-0.4,0.2C242.1,340.9,242.3,340.9,242.4,340.8z"/>
					<path class="st1" d="M242.1,347.3l-0.5,0.9C241.8,347.8,242,347.5,242.1,347.3z"/>
					<path class="st1" d="M241.3,352.3c0.2,0.1,0.4,0.1,0.6,0.1c0,0,0,0,0,0L241.3,352.3z"/>
					<path class="st1" d="M240.7,271c0-0.1,0-0.1,0-0.2C240.4,270.3,240.5,270.6,240.7,271z"/>
					<path class="st1" d="M242,295.6c-0.2-0.3-0.5-0.5-0.6-0.8C241.3,295.2,241.2,295.5,242,295.6z"/>
					<path class="st1" d="M242.3,244.1C242.3,244.1,242.3,244.1,242.3,244.1c0-0.1,0-0.1,0-0.2L242.3,244.1z"/>
					<path class="st1" d="M241.4,293.6c-0.3,0.4-0.2,0.8-0.1,1.1C241.5,294.4,241.6,294,241.4,293.6z"/>
					<path class="st1" d="M239.3,374.1l-0.1,0.2c0.1,0,0.2,0,0.2,0L239.3,374.1z"/>
					<path class="st1" d="M239.5,374.4l0.1,0.3C239.6,374.5,239.6,374.4,239.5,374.4z"/>
					<path class="st1" d="M239.9,375.2l-0.3-0.6C239.6,374.8,239.5,375.1,239.9,375.2z"/>
					<path class="st1" d="M240.5,367.5l-0.5-0.1C240.1,367.4,240.3,367.5,240.5,367.5z"/>
					<path class="st1" d="M240.5,365.5c-0.1,0.5-1.2,1.1-0.9,1.8l0.4,0.1C239.3,367,241.3,366,240.5,365.5z"/>
					<path class="st1" d="M247.3,357.3l-0.5,1.7c0.6-0.3,1.3-0.6,1.4,0.2C249.9,357,246.9,359.5,247.3,357.3z"/>
					<path class="st1" d="M248.2,351.9c0.2,0.9,0.8,0,1.1,0.1C248.8,351.4,248.7,351.3,248.2,351.9z"/>
					<path class="st1" d="M247.5,313.3l1.3,0C248.6,312.7,248.3,313.4,247.5,313.3z"/>
					<polygon class="st1" points="240.7,306.1 239.9,306.9 241.1,307.2 					"/>
					<polygon class="st1" points="249.7,301.7 249.9,302 249.5,300.9 					"/>
					<path class="st1" d="M255.4,238l-1.6,0.1C254,238.6,255.8,238.8,255.4,238z"/>
					<path class="st1" d="M254.7,209.6c0.8-0.3,1.3-1.1,0.5-1.6C255.1,208.6,254.5,209.2,254.7,209.6z"/>
					<polygon class="st1" points="258.8,126.5 259.3,127.1 258.9,126 					"/>
				</g>
			</g>
		</g>
	</g>
</g>
</svg>
